<svg width="251" height="260" viewBox="0 0 251 260" fill="none" xmlns="http://www.w3.org/2000/svg">
<path d="M223.02 259.596C227.202 259.142 230.404 257.66 233.559 254.769C237.645 250.993 239.39 247.098 239.39 241.769C239.39 239.26 238.936 237.372 237.908 235.412C235.829 231.517 232.292 229.247 228.469 229.295C227.585 229.319 226.581 229.39 226.246 229.486C225.744 229.629 225.84 229.701 226.844 229.844C227.489 229.94 228.708 230.322 229.52 230.728C234.443 233.094 236.211 240.478 233.248 246.333C232.436 247.91 230.285 250.013 228.517 250.945C225.888 252.331 223.689 252.809 219.914 252.809C217.165 252.809 216.186 252.714 214.417 252.236C208.945 250.802 205.121 247.767 202.827 243.011C199.076 235.293 201.752 225.686 210.164 216.629C211.311 215.387 214.417 212.495 217.046 210.201C226.127 202.267 229.257 199.447 232.388 196.221C234.132 194.453 235.447 193.186 235.327 193.402C234.682 194.62 230.739 198.922 227.274 202.196C213.294 215.411 209.734 219.521 206.651 225.973C204.5 230.49 203.664 235.675 204.5 239.188C205.695 243.991 209.925 247.958 215.397 249.344C222.279 251.113 228.708 247.934 230.787 241.697C231.241 240.407 231.289 239.762 231.217 237.85C231.121 235.771 231.026 235.388 230.261 234.026C229.759 233.07 229.066 232.234 228.469 231.828C227.393 231.063 225.768 230.609 225.434 230.944C225.267 231.111 225.338 231.183 225.601 231.183C226.318 231.183 227.8 232.067 228.588 232.975C229.831 234.385 230.141 235.341 230.141 237.874C230.141 239.762 230.046 240.407 229.52 241.769C227.728 246.357 224.215 248.866 219.507 248.866C217.237 248.866 215.684 248.484 213.366 247.385C208.132 244.875 204.715 238.853 205.48 233.453C206.053 229.247 207.846 225.423 211.621 220.381C212.482 219.21 213.27 218.278 213.366 218.278C213.461 218.278 213.605 218.661 213.677 219.115C213.772 219.593 214.178 220.333 214.561 220.787L215.302 221.624L214.609 221.863C212.936 222.484 212.577 222.675 212.123 223.32C211.86 223.703 211.693 224.109 211.789 224.252C212.004 224.587 214.919 225.447 215.875 225.447C216.305 225.447 217.213 225.232 217.882 224.969C219.34 224.396 220.224 224.348 220.439 224.85C220.774 225.734 219.053 226.785 215.732 227.717C212.195 228.697 210.833 229.534 209.996 231.206C209.542 232.067 208.682 236.392 208.897 236.607C209.136 236.846 210.45 236.392 211.526 235.699C212.147 235.317 212.673 235.006 212.697 235.006C212.745 235.006 212.721 235.699 212.673 236.535C212.529 238.614 213.103 240.263 214.465 241.721C216.042 243.418 217.5 243.967 220.272 243.943C222.279 243.943 222.71 243.872 224.096 243.227C228.755 241.052 229.735 237.3 226.533 233.978C224.239 231.589 221.491 231.421 220.057 233.572C219.699 234.122 219.699 234.146 220.153 233.931C222.064 233.118 223.857 234.002 223.857 235.747C223.857 236.249 223.809 236.679 223.737 236.679C223.689 236.679 223.283 236.464 222.853 236.201C221.73 235.508 220.654 235.58 220.057 236.344C219.364 237.228 219.436 237.898 220.272 238.638C221.658 239.857 220.846 241.793 218.719 242.39C215.875 243.179 213.724 240.431 213.724 236.081C213.724 233.692 214.107 232.808 215.899 230.896C218.289 228.41 220.726 226.977 225.267 225.399C230.763 223.512 233.463 221.146 233.511 218.207C233.535 214.909 230.333 212.256 228.517 214.096C227.8 214.813 227.776 215.387 228.421 216.223C228.994 216.94 229.926 217.036 230.739 216.462C231.193 216.151 231.36 216.151 231.647 216.39C233.057 217.561 232.101 220.453 229.974 221.552C228.517 222.293 225.529 221.863 224.263 220.716C224 220.501 223.45 219.593 222.996 218.708C221.849 216.414 220.176 214.694 219.125 214.694C218.743 214.694 218.313 216.08 218.408 216.94L218.504 217.752L217.165 217.657C215.086 217.466 214.25 217.322 214.346 217.083C214.537 216.534 218.79 212.161 222.04 209.221C228.11 203.653 235.59 195.074 239.557 189.124C242.879 184.13 244.981 179.972 247.18 174.165C251.41 162.885 251.696 153.948 248.208 144.126C246.941 140.566 247.037 140.685 246.081 141.689L245.292 142.501L245.913 144.604C248.901 154.474 245.316 168.238 238.959 171.369C237.741 171.966 237.334 172.038 235.208 172.038C233.893 172.038 232.34 171.894 231.79 171.727C230.548 171.345 228.779 169.815 228.086 168.453C227.465 167.282 227.369 164.964 227.919 164.415C228.23 164.08 228.278 164.128 228.325 164.749C228.421 165.968 229.066 166.9 230.213 167.402C231.671 168.047 232.794 167.832 233.941 166.637C236.187 164.295 234.777 160.758 231.265 159.994C229.042 159.492 226.82 160.615 225.697 162.837C225.099 164.008 225.028 164.343 225.123 165.825C225.362 169.959 227.919 172.516 232.459 173.161C238.553 174.069 243.787 170.437 247.084 163.076C247.73 161.643 247.753 161.595 247.634 162.479C247.132 165.872 244.408 174.117 242.592 177.749C239.724 183.484 234.3 189.889 227.25 195.863C217.596 204.083 214.322 207.023 209.853 211.468C203.496 217.824 200.677 221.409 198.215 226.308C194.44 233.835 194.655 241.195 198.86 248.723C201.728 253.837 208.969 258.305 216.329 259.5C218.671 259.883 220.105 259.907 223.02 259.596Z" fill="url(#paint0_linear_5_3)"/>
<path d="M165.907 258.329C168.535 257.66 170.232 256.585 171.164 254.984C172.024 253.478 172.096 252.642 171.546 251.399C170.519 249.033 167.747 248.651 165.62 250.586C164.927 251.232 164.736 252.235 165.07 253.287C165.405 254.314 165.166 254.721 163.756 255.342C161.749 256.274 157.997 255.629 155.966 254.004C155.392 253.55 154.795 253.167 154.675 253.167C154.532 253.191 154.125 253.43 153.743 253.765C153.122 254.267 153.074 254.386 153.361 254.721C153.934 255.414 156.539 257.134 157.782 257.636C160.171 258.64 163.517 258.927 165.907 258.329Z" fill="url(#paint1_linear_5_3)"/>
<path d="M152.883 252.211C153.146 251.948 153.361 251.494 153.361 251.184C153.361 250.491 152.429 249.583 151.736 249.583C150.995 249.583 150.254 250.419 150.254 251.208C150.254 252.57 151.903 253.191 152.883 252.211Z" fill="url(#paint2_linear_5_3)"/>
<path d="M18.2717 250.538C21.2589 249.917 23.5769 247.527 24.4132 244.206C24.6283 243.417 25.0107 240.406 25.2735 237.515C26.2772 226.618 27.1136 222.579 29.1448 218.708C29.79 217.465 31.5584 215.577 32.801 214.741C33.2312 214.478 33.1834 214.454 32.4426 214.574C31.2239 214.765 29.9095 215.792 28.7386 217.417C26.7312 220.261 25.7993 222.627 24.2221 229.031C22.5971 235.46 21.1155 238.566 18.8931 240.072C17.053 241.362 15.8821 241.505 11.9152 240.98C8.33065 240.526 5.6542 241.004 3.57517 242.509C2.5715 243.226 -0.224432 246.619 0.0145367 246.858C0.0623305 246.93 0.635855 246.643 1.28107 246.261C2.90606 245.257 5.15236 244.708 6.82514 244.923C7.56595 245.018 9.4299 245.568 10.9832 246.141C12.9666 246.882 14.3288 247.241 15.6192 247.36L17.4115 247.504L16.2883 248.244C15.667 248.651 14.4482 249.152 13.588 249.368L12.0108 249.774L13.2773 250.132C14.9262 250.634 17.0291 250.801 18.2717 250.538Z" fill="url(#paint3_linear_5_3)"/>
<path d="M150.684 248.555C151.33 248.364 151.473 248.197 151.377 247.814C150.565 244.373 150.469 243.608 150.613 241.983L150.756 240.239L149.513 240.311C148.295 240.382 148.247 240.406 148.032 241.219C147.506 243.226 148.582 248.89 149.49 248.842C149.705 248.818 150.254 248.698 150.684 248.555Z" fill="url(#paint4_linear_5_3)"/>
<path d="M75.0983 247.026C77.0578 246.022 78.2049 243.919 77.9181 242.007C77.3924 238.542 73.5689 234.767 70.0083 234.169C68.8373 233.978 68.7417 234.193 69.6259 235.029C71.4421 236.678 71.6094 239.594 70.0322 241.482C69.2914 242.342 67.7859 243.107 66.7822 243.13C66.2087 243.13 66.137 243.226 66.137 243.943C66.137 246.882 71.0836 247.695 73.7362 245.209L74.3097 244.684L74.2141 246.07C74.1902 246.811 74.1902 247.432 74.2619 247.432C74.3336 247.408 74.6921 247.241 75.0983 247.026Z" fill="url(#paint5_linear_5_3)"/>
<path d="M186.864 242.151C188.346 241.912 189.278 241.219 189.923 239.88C191.476 236.702 188.179 233.452 184.809 234.862C184.379 235.053 183.829 235.436 183.638 235.722C183.256 236.272 183.256 236.272 182.18 235.866C180.866 235.364 179.91 234.289 178.811 232.018C177.425 229.198 176.947 227.024 176.947 223.176C176.923 220.142 176.995 219.664 177.592 217.919C179.958 211.013 184.713 205.803 191.859 202.219L194.272 201.024L193.484 200.212C193.053 199.758 192.552 199.399 192.36 199.399C191.93 199.399 187.916 201.741 185.861 203.199C185 203.796 183.256 205.302 181.989 206.544L179.671 208.767L177.568 209.006C173.004 209.484 165.022 208.289 160.936 206.473C159.598 205.875 159.478 205.899 159 206.735C158.809 207.094 159.598 207.524 161.725 208.217C166.695 209.866 172.478 210.439 177.497 209.77C178.166 209.699 178.237 209.723 177.831 209.89C176.923 210.296 171.522 210.87 168.703 210.87C158.857 210.87 150.23 208.265 144.208 203.485C142.344 202.004 139.979 199.112 139.979 198.324C139.979 198.061 139.453 196.723 138.808 195.337C138.162 193.951 137.565 192.612 137.469 192.373C137.35 191.967 137.23 191.991 136.394 192.827C135.892 193.329 135.343 194.046 135.175 194.405C135.032 194.787 134.865 195.098 134.793 195.098C134.745 195.098 134.291 194.883 133.765 194.62C132.618 194.046 130.515 193.783 129.655 194.118C129.034 194.357 129.034 194.357 129.344 195.408C129.798 196.938 130.372 197.965 131.208 198.849L131.949 199.638L131.184 200.379C130.515 201.048 129.894 202.386 130.085 202.745C130.109 202.816 130.659 203.151 131.304 203.462C132.547 204.107 134.888 204.25 135.797 203.748C136.203 203.533 136.513 203.629 137.469 204.226C142.727 207.524 151.425 210.344 159.861 211.491C164.162 212.088 171.26 212.041 174.868 211.395C176.373 211.132 177.64 210.941 177.688 210.989C177.736 211.037 176.66 211.61 175.298 212.279C170.901 214.478 165.883 215.338 159.932 214.932C154.914 214.597 151.592 213.952 142.894 211.586C135.534 209.603 129.153 211.013 123.179 215.96C121.889 217.035 121.793 217.322 122.725 217.322C123.107 217.322 123.992 217.513 124.708 217.776C125.425 218.015 126.429 218.278 126.931 218.373L127.863 218.54L127.17 218.971C125.306 220.118 123.394 223.033 122.653 225.925C122.247 227.454 121.865 231.66 122.128 231.66C122.199 231.66 123.083 231.206 124.087 230.68C125.091 230.13 125.951 229.748 126.023 229.796C126.071 229.868 125.927 230.274 125.712 230.728C125.425 231.277 125.282 232.09 125.282 233.213C125.282 235.149 125.903 236.487 127.504 237.921C129.894 240.072 132.881 241.099 136.633 241.051C139.094 241.027 141.58 240.549 141.484 240.143C141.46 240.024 140.815 239.713 140.05 239.426C137.756 238.59 136.37 237.825 135.032 236.583C132.833 234.599 132.212 232.735 132.929 230.322C133.598 227.98 135.749 225.471 138.736 223.583C141.484 221.814 143.754 221.312 150.613 220.906C155.296 220.643 160.554 219.95 163.445 219.21C164.449 218.971 165.357 218.756 165.453 218.756C165.548 218.756 164.688 219.353 163.541 220.07C158.57 223.176 153.934 227.478 151.473 231.206C150.087 233.309 149.346 234.886 149.633 235.173C149.848 235.388 151.64 235.651 151.855 235.507C151.975 235.436 152.262 234.886 152.5 234.289C152.739 233.691 153.624 232.138 154.508 230.823C156.491 227.812 161.486 222.746 165.19 219.998C168.105 217.847 167.962 217.943 170.829 216.724C171.976 216.246 173.625 215.434 174.51 214.908C175.394 214.382 176.182 214 176.206 214.048C176.254 214.096 176.039 214.789 175.728 215.553C174.39 218.827 174.055 220.739 174.055 225.088C174.032 228.625 174.103 229.39 174.581 231.062C176.708 238.447 181.726 242.987 186.864 242.151Z" fill="url(#paint6_linear_5_3)"/>
<path d="M150.923 239.021C151.33 238.615 151.282 237.491 150.828 237.061C149.991 236.201 148.581 236.846 148.581 238.089C148.581 238.925 148.988 239.308 149.896 239.308C150.302 239.308 150.756 239.188 150.923 239.021Z" fill="url(#paint7_linear_5_3)"/>
<path d="M116.44 238.136C117.539 237.873 118.065 237.515 119.021 236.439C120.264 235.077 120.192 234.862 118.543 234.958L117.157 235.053L117.898 234.241C120.551 231.445 119.977 227.143 116.918 226.833C116.273 226.761 116.201 226.833 116.082 227.621C115.867 228.912 115.102 230.035 114.003 230.656C111.972 231.779 109.606 231.564 107.957 230.083C106.905 229.127 106.643 229.294 106.858 230.776C107.455 234.743 112.999 238.996 116.44 238.136Z" fill="url(#paint8_linear_5_3)"/>
<path d="M52.3963 235.842C54.5949 235.388 56.1004 234.934 56.1004 234.719C56.1004 234.599 55.8136 234.599 55.4313 234.695C53.4478 235.244 50.4129 234.265 48.764 232.568L47.9993 231.779H50.5563C52.9938 231.756 53.2805 231.708 56.4588 230.585C59.5415 229.485 59.9717 229.414 62.0746 229.39C64.5121 229.39 65.1095 229.581 66.9018 230.991C67.8816 231.756 68.025 231.588 67.4036 230.393C66.7106 229.031 66.0654 228.314 64.7511 227.454C62.911 226.211 60.7842 225.566 54.7144 224.347C46.7806 222.77 44.821 222.029 42.3118 219.64C39.8265 217.298 39.014 215.052 39.1813 210.989C39.3725 207.07 40.8541 202.864 43.6023 198.563C44.1997 197.655 44.8927 196.651 45.1556 196.388C45.4662 196.03 45.5379 195.815 45.3706 195.695C45.0361 195.504 42.8376 197.368 41.3082 199.136C37.867 203.127 35.549 208.098 34.8321 213.044C34.4019 215.888 34.6409 220.93 35.2861 223.416C36.2898 227.239 38.6317 231.11 41.117 233.118C44.2714 235.651 48.4772 236.678 52.3963 235.842Z" fill="url(#paint9_linear_5_3)"/>
<path d="M104.802 227.143C101.935 223.774 100.429 219.162 101.003 215.529C101.6 211.634 104.014 208.958 108.196 207.5C109.558 207.022 110.418 206.927 115.245 206.783C121.1 206.616 122.414 206.377 124.207 205.254C126.907 203.557 128.221 199.781 127.194 196.747C126.453 194.572 124.78 192.875 120.741 190.199C109.295 182.647 86.999 178.059 71.8722 180.186C67.6663 180.76 62.7913 182.002 62.7913 182.456C62.7913 182.839 63.8428 184.344 64.1296 184.344C64.273 184.344 65.1571 184.081 66.0891 183.771C71.6571 181.859 80.9052 181.046 88.9585 181.715C95.1478 182.241 102.341 183.771 107.025 185.563C108.889 186.256 110.203 186.973 109.032 186.662C107.909 186.327 100.405 185.3 97.4897 185.061C94.0008 184.75 91.0853 184.965 86.4493 185.778C83.6773 186.28 79.3997 187.546 79.1608 187.929C79.0891 188.048 79.3758 188.55 79.806 189.028L80.6185 189.888L82.7453 189.171C87.0229 187.737 88.385 187.57 94.9328 187.594C99.975 187.594 101.385 187.69 104.014 188.12C109.916 189.147 115.078 190.677 119.308 192.684C123.036 194.452 123.729 194.954 123.729 195.886C123.705 197.989 120.98 198.897 118.041 197.774C117.348 197.511 115.484 196.46 113.883 195.432C109.653 192.756 107.813 191.943 105.71 191.8C103.631 191.68 102.03 191.991 99.9033 192.947L98.3022 193.688L99.8555 195.241C100.692 196.077 101.743 197.033 102.15 197.32C102.58 197.607 102.938 197.917 102.938 198.037C102.938 198.133 102.102 198.204 101.074 198.204C98.828 198.204 95.5063 198.873 93.26 199.758C91.5155 200.451 87.5247 202.601 87.2857 202.984C87.214 203.103 87.4052 203.318 87.692 203.485C88.0026 203.629 89.1975 204.417 90.3684 205.182C93.2122 207.118 94.7416 207.787 96.271 207.811H97.4897L96.7728 208.552C94.9089 210.487 93.7618 215.219 94.2397 218.827L94.407 219.95L95.2673 219.281C95.7453 218.899 96.4622 218.373 96.8445 218.11L97.5853 217.609L97.4897 219.138C97.3941 220.5 97.4658 220.858 98.135 222.197C99.0669 224.085 101.313 226.283 103.44 227.335C105.447 228.338 105.782 228.29 104.802 227.143Z" fill="url(#paint10_linear_5_3)"/>
<path d="M228.278 227.096C233.631 225.303 237 222.173 237.956 218.063C239.007 213.594 236.833 207.476 232.675 203.103C231.265 201.622 231.05 201.478 230.691 201.765C229.616 202.649 229.711 202.912 231.671 204.991C233.798 207.213 234.825 209.006 235.542 211.587C236.403 214.693 236.14 217.656 234.706 220.452C233.463 222.938 230.166 225.662 226.892 226.904C226.151 227.191 225.53 227.526 225.53 227.621C225.53 227.956 225.96 227.86 228.278 227.096Z" fill="url(#paint11_linear_5_3)"/>
<path d="M74.5491 221.48C77.5362 220.763 79.9736 218.971 81.1207 216.629C82.0288 214.813 82.0766 212.16 81.2402 210.798C79.7586 208.432 76.3652 207.859 74.6207 209.675C73.9994 210.32 73.9038 210.607 73.9038 211.73C73.9038 212.925 73.9755 213.14 74.6924 213.761C75.1226 214.144 75.7917 214.526 76.174 214.621C77.0582 214.789 77.2733 215.41 76.7715 216.366C75.8873 218.087 73.0675 219.09 69.1245 219.09C65.8984 219.114 63.6521 218.493 62.1705 217.226L61.1668 216.39L60.3065 217.68C59.8286 218.397 59.4462 219.042 59.4462 219.114C59.4462 219.305 61.6208 220.333 62.9113 220.739C66.3285 221.838 71.7292 222.173 74.5491 221.48Z" fill="url(#paint12_linear_5_3)"/>
<path d="M56.5786 219.066C57.9885 218.612 58.7293 217.704 58.7293 216.485C58.7293 214.98 57.6539 214 56.0529 213.976C55.1209 213.976 54.8102 214.096 54.2128 214.717C53.6154 215.314 53.472 215.649 53.472 216.485C53.472 217.322 53.6154 217.656 54.2128 218.254C54.619 218.66 55.097 218.995 55.2643 218.995C55.4315 218.995 55.7183 219.042 55.9095 219.09C56.0767 219.162 56.3874 219.138 56.5786 219.066Z" fill="url(#paint13_linear_5_3)"/>
<path d="M24.1265 218.039C24.461 217.824 24.4849 217.68 24.2698 217.059C23.1228 213.761 27.7588 210.344 31.0805 212.041C31.8452 212.423 32.0124 212.447 32.1319 212.16C32.2753 211.754 31.5106 210.487 30.483 209.531C26.6595 205.923 20.6136 205.565 18.678 208.838C18.1522 209.747 17.6265 211.587 17.8894 211.587C17.9372 211.587 18.5585 211.372 19.2515 211.109L20.518 210.631L20.0879 211.395C19.8011 211.921 19.6577 212.734 19.6577 213.857C19.6577 215.697 20.1118 216.772 21.2349 217.609C21.9518 218.158 23.5529 218.397 24.1265 218.039Z" fill="url(#paint14_linear_5_3)"/>
<path d="M52.277 213.713L52.7789 212.734L51.2495 211.276C48.7164 208.862 47.7366 206.52 47.7366 202.984C47.7605 197.822 50.9149 191.991 55.4792 188.741L56.1722 188.239L55.2403 187.594C54.7384 187.26 54.1888 186.973 53.9976 186.973C53.4958 186.973 49.6006 191.059 48.3818 192.899C46.0638 196.388 45.0602 199.399 45.0124 202.984C45.0124 205.947 45.6337 208.026 47.2826 210.511C48.3818 212.136 50.9866 214.693 51.5601 214.693C51.6796 214.693 52.0142 214.263 52.277 213.713Z" fill="url(#paint15_linear_5_3)"/>
<path d="M72.6611 205.325C72.1593 203.916 72.0398 203.127 72.0159 201.191C71.992 198.945 72.0398 198.682 72.7567 197.248C73.1868 196.388 73.9754 195.169 74.525 194.5L75.5048 193.329L74.8118 192.78C73.9515 192.063 73.1629 191.872 72.7089 192.23C71.992 192.827 70.5821 195.217 70.1519 196.627C69.4589 198.778 69.6501 201.191 70.6299 203.318C71.4185 204.967 72.7806 207.046 73.0912 207.046C73.1868 207.046 72.9956 206.257 72.6611 205.325Z" fill="url(#paint16_linear_5_3)"/>
<path d="M158.57 206.281C159.239 205.612 158.618 204.179 157.662 204.179C156.706 204.179 156.085 205.612 156.754 206.281C156.921 206.449 157.328 206.568 157.662 206.568C157.997 206.568 158.403 206.449 158.57 206.281Z" fill="url(#paint17_linear_5_3)"/>
<path d="M156.133 204.633C156.563 204.155 156.539 204.131 155.392 203.151C154.723 202.601 153.671 201.598 153.05 200.905C151.999 199.782 151.831 199.686 151.306 199.925C150.995 200.068 150.732 200.259 150.732 200.355C150.732 200.857 154.962 205.134 155.488 205.134C155.583 205.134 155.87 204.919 156.133 204.633Z" fill="url(#paint18_linear_5_3)"/>
<path d="M197.809 200.403C198.717 199.495 198.717 198.826 197.833 197.941C197.044 197.153 196.638 197.105 195.682 197.607C194.081 198.419 194.487 200.642 196.303 200.976C196.948 201.096 197.187 201 197.809 200.403Z" fill="url(#paint19_linear_5_3)"/>
<path d="M222.064 198.683C222.423 198.014 222.542 197.249 222.303 197.249C222.255 197.249 221.085 196.938 219.746 196.556C215.445 195.337 213.055 195.026 208.969 195.17C205.48 195.265 200.414 196.054 199.864 196.556C199.721 196.675 199.816 197.153 200.079 197.727C200.39 198.444 200.629 198.659 200.892 198.539C201.107 198.468 202.397 198.181 203.783 197.918C205.647 197.559 207.32 197.416 210.355 197.392C214.752 197.368 217.046 197.727 220.009 198.826C220.846 199.137 221.562 199.4 221.61 199.4C221.658 199.4 221.849 199.089 222.064 198.683Z" fill="url(#paint20_linear_5_3)"/>
<path d="M151.186 199.065C151.688 198.467 151.401 197.416 150.684 197.153C149.49 196.747 148.558 198.156 149.442 199.017C149.896 199.495 150.828 199.519 151.186 199.065Z" fill="url(#paint21_linear_5_3)"/>
<path d="M149.92 196.531C150.087 196.364 150.015 195.719 149.705 194.548C149.346 193.138 149.274 192.254 149.37 189.601C149.561 184.44 150.589 181.62 153.265 178.967C155.583 176.649 158.857 175.215 160.912 175.622C161.39 175.693 162.083 176.124 162.561 176.578C163.493 177.533 164.568 177.677 165.548 177.008C167.293 175.813 167.149 174.212 165.238 173.328C161.653 171.727 154.795 174.451 151.186 178.943C147.673 183.293 146.622 189.745 148.51 195.647C148.868 196.77 149.37 197.081 149.92 196.531Z" fill="url(#paint22_linear_5_3)"/>
<path d="M221.156 193.975C221.084 192.947 220.941 191.752 220.846 191.322L220.702 190.533L221.491 191.011C223.833 192.373 227.417 192.589 229.711 191.489C233.415 189.745 235.59 185.181 234.897 180.64C234.371 177.342 232.913 175.383 230.38 174.642C228.493 174.092 226.796 174.331 224.573 175.431C221.634 176.912 220.583 179.063 221.706 181.333C222.303 182.576 222.709 182.767 222.518 181.715C222.088 179.565 224.478 177.916 226.676 178.824L227.393 179.135L226.222 180.258C224.789 181.644 224.645 182.552 225.744 183.651C226.533 184.416 227.107 184.511 227.823 183.986C229.066 183.03 231.312 183.914 231.743 185.563C232.77 189.386 229.425 191.728 224.334 190.701C219.579 189.721 217.333 187.379 215.588 181.548C215.015 179.66 214.943 178.896 214.776 173.83C214.585 167.975 214.346 166.493 213.294 164.295C211.645 160.901 208.061 159.515 204.811 161.045C203.568 161.618 202.588 162.741 202.588 163.602C202.588 164.342 203.162 165.251 203.855 165.609C205.384 166.398 207.177 164.916 206.627 163.339C206.268 162.311 206.651 161.881 207.941 161.881C209.829 161.881 211.908 163.841 212.267 165.967C212.529 167.473 211.86 169.289 210.474 170.795C209.16 172.252 208.634 172.443 205.121 172.874C202.756 173.16 201.322 173.734 200.318 174.785C199.649 175.478 199.649 175.502 200.103 176.004C200.653 176.625 201.871 177.175 202.732 177.175H203.353L202.708 177.94C202.373 178.346 201.656 179.517 201.155 180.521C200.581 181.668 199.864 182.695 199.243 183.197L198.263 184.033L199.028 184.344C200.653 185.037 203.234 184.464 205.121 183.03C205.552 182.695 205.958 182.432 206.029 182.432C206.101 182.432 206.173 183.03 206.173 183.747C206.173 185.252 206.579 186.399 207.344 187.092L207.87 187.546L208.802 186.495C209.327 185.897 210.068 184.774 210.474 184.01C211.096 182.791 211.191 182.337 211.191 180.76C211.191 179.278 211.287 178.776 211.645 178.346C212.099 177.796 212.123 177.796 212.601 178.227C213.437 178.991 213.676 180.186 213.581 183.03C213.318 189.339 213.7 191.107 215.636 192.636C216.449 193.282 220.869 195.815 221.18 195.815C221.228 195.815 221.228 194.978 221.156 193.975Z" fill="url(#paint23_linear_5_3)"/>
<path d="M174.749 195.241C175.298 194.835 175.322 193.544 174.796 193.019C174.223 192.445 172.98 192.517 172.431 193.162C171.905 193.831 171.881 194.357 172.383 195.05C172.813 195.671 174.032 195.767 174.749 195.241Z" fill="url(#paint24_linear_5_3)"/>
<path d="M170.28 194.238L170.208 193.114L168.703 192.804C165.405 192.135 162.466 189.315 162.442 186.829C162.442 186.16 162.585 185.993 163.565 185.515C164.425 185.085 164.784 184.727 165.023 184.081C165.453 182.934 165.07 181.477 164.043 180.353C162.537 178.728 160.028 179.111 158.618 181.166C158.092 181.931 158.021 182.289 158.021 184.201C158.021 186.208 158.092 186.495 158.857 188.024C159.885 190.103 162.274 192.541 164.234 193.592C165.716 194.357 167.532 194.954 169.324 195.217L170.352 195.385L170.28 194.238Z" fill="url(#paint25_linear_5_3)"/>
<path d="M178.883 193.879C179.695 193.497 180.866 192.684 181.511 192.111C182.611 191.131 184.116 189.195 183.925 189.052C183.877 189.004 183.447 188.669 182.969 188.335L182.109 187.69L180.341 189.434C179.313 190.438 178.07 191.418 177.377 191.752C176.708 192.063 176.159 192.326 176.111 192.373C175.991 192.445 176.971 194.333 177.234 194.476C177.353 194.548 178.094 194.285 178.883 193.879Z" fill="url(#paint26_linear_5_3)"/>
<path d="M77.8944 191.513C78.4679 190.916 78.5874 190.653 78.444 190.127C78.0617 188.55 76.3172 188.048 75.2896 189.219C74.5488 190.079 74.5966 190.677 75.433 191.537C76.3172 192.421 76.9863 192.421 77.8944 191.513Z" fill="url(#paint27_linear_5_3)"/>
<path d="M185.144 187.212C185.908 186.447 185.741 185.635 184.714 185.085C183.877 184.655 182.778 185.348 182.754 186.328C182.754 186.877 183.59 187.69 184.188 187.69C184.451 187.69 184.881 187.475 185.144 187.212Z" fill="url(#paint28_linear_5_3)"/>
<path d="M60.3781 187.068C60.9755 186.59 61.1189 186.256 61.1189 185.539C61.1189 183.221 58.0123 182.528 56.9369 184.607C56.6263 185.204 56.6024 185.491 56.8174 186.16C57.3432 187.761 59.0399 188.192 60.3781 187.068Z" fill="url(#paint29_linear_5_3)"/>
<path d="M186.004 183.245C186.1 182.767 186.1 181.285 186.028 179.947C185.741 174.403 182.993 169.695 178.692 167.401C177.234 166.636 174.629 165.872 173.817 165.991C173.506 166.039 173.817 166.206 174.629 166.398C177.545 167.114 180.221 169.002 181.774 171.392C183.567 174.212 184.427 178.226 183.949 181.715C183.638 183.938 183.71 184.105 185.072 184.105C185.765 184.105 185.861 184.033 186.004 183.245Z" fill="url(#paint30_linear_5_3)"/>
<path d="M197.713 178.872C198.55 178.37 199.338 176.888 199.123 176.243C198.693 174.881 196.758 174.594 196.184 175.813C195.372 177.51 192.384 175.598 191.452 172.802C191.166 171.966 191.094 171.081 191.166 169.743C191.309 167.306 192.289 165.322 194.368 163.219C197.833 159.707 202.971 157.197 210.976 155.071C216.473 153.613 219.961 151.462 221.539 148.547C223.092 145.679 222.781 140.661 220.846 137.745C220.272 136.885 218.456 135.356 218.002 135.356C217.906 135.356 218.336 135.905 218.934 136.55C220.296 138.104 221.061 139.992 221.085 142.047C221.108 144.819 219.866 146.372 217.213 146.874C215.779 147.137 215.779 147.137 215.995 147.83C216.162 148.475 216.138 148.499 215.66 148.355C214.274 147.901 213.27 147.782 210.833 147.782C209.375 147.782 207.965 147.854 207.655 147.925C206.627 148.212 207.177 150.148 208.563 151.128C208.969 151.414 209.28 151.701 209.232 151.725C209.184 151.773 208.587 151.653 207.894 151.486C204.739 150.65 201.059 150.817 198.574 151.868C196.351 152.824 195.873 153.828 196.997 155.166L197.618 155.907H196.758C195.133 155.907 193.388 156.934 192.647 158.344C192.337 158.942 192.361 159.013 193.054 159.587C193.46 159.922 193.866 160.208 193.938 160.208C194.033 160.208 194.248 160.304 194.44 160.423C194.679 160.567 194.392 160.997 193.245 162.144C187.964 167.425 188.298 176.124 193.866 178.752C195.3 179.445 196.71 179.493 197.713 178.872Z" fill="url(#paint31_linear_5_3)"/>
<path d="M176.182 162.909C179.575 162.407 183.232 160.137 185.096 157.341C185.621 156.552 186.099 155.787 186.171 155.62C186.267 155.405 186.458 155.501 186.864 155.907C187.151 156.265 187.653 156.719 187.963 156.982C188.489 157.412 188.513 157.412 189.23 156.719C190.377 155.644 190.711 154.76 190.711 153.087C190.711 151.629 190.711 151.605 191.142 151.988C191.691 152.466 192.862 152.537 193.388 152.083C194.081 151.51 194.535 149.287 194.392 147.089C194.248 144.914 193.746 143.17 192.575 140.876L191.882 139.466L193.077 140.278C194.224 141.067 195.419 141.306 196.064 140.9C196.566 140.589 195.371 135.093 194.439 133.492C193.866 132.512 193.866 132.536 194.607 132.44C195.204 132.368 195.228 132.297 195.252 130.672C195.3 129.214 195.395 128.856 195.993 128.091C197.713 125.845 202.325 125.414 205.408 127.231C206.483 127.876 206.603 127.828 205.91 127.087C202.684 123.622 194.153 124.602 191.142 128.808C189.301 131.341 188.608 134.041 188.25 140.135C187.892 146.061 186.864 150.817 185.215 154.091C183.518 157.46 180.866 160.065 178.381 160.806C176.421 161.379 174.007 161.284 172.526 160.543C170.734 159.659 169.706 157.819 170.805 157.46C172.096 157.054 171.355 154.903 169.873 154.76C169.276 154.688 168.941 154.855 168.296 155.501C167.316 156.48 167.077 157.341 167.436 158.583C168.272 161.379 172.478 163.458 176.182 162.909Z" fill="url(#paint32_linear_5_3)"/>
<path d="M226.533 152.251C229.425 151.438 231.265 148.786 231.265 145.392C231.265 143.624 231.002 142.62 230.118 141.234L229.544 140.302L230.261 140.804C230.643 141.091 231.36 141.903 231.862 142.644C232.364 143.361 232.866 143.958 232.938 143.958C233.32 143.958 233.774 142.333 233.774 140.971C233.774 139.92 233.607 139.227 233.177 138.366C232.436 136.909 230.381 134.782 228.397 133.444C226.916 132.44 223.57 131.054 222.614 131.054C222.184 131.054 222.16 130.982 222.375 130.767C222.59 130.552 223.689 130.457 226.199 130.481C229.305 130.481 229.95 130.576 231.814 131.126C235.351 132.201 238.028 133.778 240.704 136.335C241.66 137.243 241.66 137.243 242.425 136.885C242.831 136.67 243.357 136.311 243.596 136.048C243.978 135.618 243.954 135.547 243.309 134.591C242.281 133.085 239.007 129.859 237.358 128.736C235.925 127.78 232.173 125.797 231.791 125.797C231.671 125.797 231.504 126.346 231.408 127.015L231.241 128.234L230.094 127.159C227.848 125.056 224.335 123.765 220.057 123.503C218.122 123.359 217.452 123.431 215.78 123.885C213.916 124.387 211.693 125.582 211.502 126.155C211.454 126.299 212.028 126.609 212.769 126.872C215.708 127.876 219.818 130.696 221.873 133.133C223.355 134.901 225.195 137.841 225.792 139.37C227.417 143.624 226.748 148.093 224.072 150.984C223.522 151.605 223.14 152.155 223.212 152.227C223.522 152.537 225.458 152.537 226.533 152.251Z" fill="url(#paint33_linear_5_3)"/>
<path d="M213.868 142.262C214.154 142.094 214.298 141.736 214.298 141.091C214.298 139.968 214.417 139.92 215.158 140.732C215.827 141.449 216.233 141.473 216.807 140.852C217.835 139.729 217.118 137.626 214.8 134.925L213.414 133.3L214.083 132.536C214.465 132.106 214.776 131.604 214.776 131.389C214.776 130.624 214.011 129.573 213.199 129.238C212.123 128.784 211.359 128.999 210.498 130.003L209.781 130.791L208.515 130.242C206.603 129.381 204.094 128.664 203.066 128.664C201.274 128.664 200.175 130.337 201.632 130.887C202.517 131.221 202.517 131.365 201.632 132.01C200.342 132.918 200.462 134.447 201.848 134.758C202.373 134.878 203.019 134.71 204.237 134.185C206.077 133.372 206.507 133.3 207.344 133.778L207.917 134.113L207.344 134.686C207.009 135.021 206.149 135.475 205.432 135.714C203.759 136.264 202.971 136.837 202.588 137.745C202.349 138.343 202.349 138.606 202.588 139.06C202.971 139.776 204.07 140.231 204.978 140.039C205.623 139.92 205.743 139.992 205.958 140.565C206.603 142.286 208.18 142.811 209.423 141.736L210.068 141.162L209.757 139.346C209.518 137.865 209.518 137.387 209.757 136.789C210.116 135.953 210.474 135.881 211.072 136.55C211.43 136.957 211.526 137.458 211.526 139.322C211.55 141.425 211.597 141.64 212.123 142.071C212.745 142.572 213.246 142.644 213.868 142.262Z" fill="url(#paint34_linear_5_3)"/>
<path d="M244.814 140.422C245.507 140.326 246.32 139.298 246.32 138.534C246.32 137.721 245.316 136.789 244.408 136.789C243.5 136.789 242.496 137.721 242.496 138.534C242.496 139.227 243.261 140.278 243.858 140.422C244.097 140.469 244.527 140.469 244.814 140.422Z" fill="url(#paint35_linear_5_3)"/>
<path d="M201.513 121.447C201.059 120.898 200.366 119.846 200.008 119.106C199.434 117.935 199.362 117.528 199.362 115.402C199.362 113.538 199.482 112.701 199.888 111.602C200.748 109.356 202.541 106.727 204.906 104.266C206.125 102.999 207.129 101.9 207.129 101.828C207.129 101.589 205.48 101.637 204.261 101.924C203.664 102.043 202.565 102.473 201.8 102.856L200.414 103.549L201.059 102.426C204.548 96.2602 205.337 94.0377 205.145 90.9312C205.026 89.0672 204.428 86.8448 204.022 86.8448C203.951 86.8448 203.568 87.1793 203.162 87.5856C202.78 87.9918 201.226 89.3779 199.721 90.6683C196.184 93.6554 194.989 95.2087 194.583 97.4311L194.416 98.3392L193.651 96.8337C193.245 95.9973 192.528 94.8024 192.098 94.1572C191.333 93.0341 191.261 93.0102 190.927 93.4403C189.087 95.83 188.585 100.251 189.804 103.166C189.995 103.644 190.162 104.098 190.162 104.146C190.162 104.218 189.23 103.525 188.059 102.593C183.328 98.7932 179.456 97.0727 176.469 97.455C175.824 97.5506 173.96 98.0524 172.311 98.5782C170.065 99.2712 168.894 99.534 167.675 99.534L166.026 99.5579L166.504 100.227C167.269 101.279 169.372 103.047 170.567 103.644L171.666 104.17L170.184 105.628C169.252 106.56 168.44 107.659 167.914 108.734C167.173 110.216 167.102 110.574 167.102 112.414C167.102 113.92 167.221 114.732 167.556 115.473C167.795 116.023 168.081 116.477 168.153 116.477C168.225 116.477 168.296 115.641 168.296 114.613C168.32 112.414 168.679 111.626 170.447 109.905C172.717 107.683 176.947 106.058 181.201 105.795C186.697 105.46 190.066 107.731 193.149 113.848C195.324 118.15 197.212 120.3 200.079 121.71C202.206 122.762 202.588 122.69 201.513 121.447Z" fill="url(#paint36_linear_5_3)"/>
<path d="M220.463 121.567C220.057 120.635 218.217 117.17 217.859 116.668C217.189 115.736 217.285 115.712 218.623 116.525C220.248 117.552 222.781 117.72 225.84 116.979C227.011 116.692 228.54 116.405 229.257 116.334C229.974 116.238 230.596 116.095 230.667 115.999C230.811 115.76 228.923 113.562 227.68 112.534C226.438 111.506 223.522 110.025 222.733 110.025C222.423 110.025 222.184 109.929 222.184 109.786C222.184 109.666 222.327 109.547 222.495 109.547C223.116 109.547 226.127 107.205 227.8 105.461C229.162 104.003 233.893 97.8852 233.893 97.5506C233.893 97.5028 233.129 97.5028 232.173 97.5506L230.452 97.6462L231.982 95.9257C238.601 88.5893 241.54 81.6592 241.54 73.4626C241.54 71.0012 241.564 70.9056 242.496 69.0417C244.743 64.573 245.459 57.5951 244.265 51.7164C243.285 46.8415 240.847 41.6797 237.86 38.0474C237.454 37.5456 235.972 36.1357 234.586 34.893C228.182 29.1578 223.283 22.2038 221.945 16.9704C221.371 14.7241 221.324 11.5458 221.802 9.70573C222.972 5.3326 227.202 2.24991 230.715 3.18188L231.743 3.46865L231.599 4.49621C231.456 5.40429 231.528 5.57157 232.005 5.93003C232.316 6.1451 232.961 6.31238 233.463 6.31238C236.283 6.31238 236.211 2.01094 233.368 0.553229C231.456 -0.45044 227.847 -0.0441932 225.529 1.41352C224.096 2.3216 222.017 4.78298 221.132 6.62303C219.221 10.566 219.077 15.4649 220.726 19.2884L221.204 20.4115H219.842C217.62 20.4115 217.404 20.531 217.404 21.7498C217.404 23.6615 218.528 25.4777 220.463 26.6725L221.276 27.1743L220.129 27.5567C218.265 28.178 218.121 29.349 219.627 31.5475C221.563 34.3673 225.314 36.4941 230.787 37.8801L231.862 38.1669L230.524 38.4298C228.923 38.7643 228.062 39.2901 227.441 40.3176L226.987 41.0584L228.23 41.8709C230.524 43.3047 234.276 45.0253 235.733 45.3121L237.191 45.5749L236.618 46.1963C236.307 46.5308 236.044 46.8654 236.044 46.9371C236.044 47.0326 236.522 47.415 237.096 47.8451C240.202 50.0198 242.018 55.0859 242.018 61.6097C242.018 64.4296 241.612 68.4442 241.325 68.4442C241.254 68.4442 240.943 67.4645 240.656 66.2696C239.987 63.4737 237.956 59.2917 236.068 56.8065C232.603 52.2183 226.987 48.108 221.634 46.2441C218.695 45.2165 218.599 45.2404 218.599 46.6742C218.599 47.3194 218.743 47.9407 218.886 48.0602C219.053 48.1797 219.89 48.4665 220.774 48.7054C225.338 49.9003 228.493 51.812 232.34 55.6594C235.423 58.7421 236.904 61.0362 238.099 64.5491C239.151 67.6318 239.437 69.5913 239.437 73.3431C239.437 81.4441 236.857 88.2309 231.719 93.6555C229.64 95.8301 227.059 97.8374 226.294 97.8374C225.362 97.8374 222.112 98.5782 221.395 98.9367C220.75 99.2712 220.798 99.1995 221.897 97.5506C222.901 96.0929 224.096 93.99 224.096 93.7271C224.096 93.6793 223.474 93.6555 222.686 93.6316L221.3 93.6077L220.439 95.0654C218.169 99.0561 213.772 103.883 209.662 106.966C207.296 108.734 203.712 110.79 202.182 111.267C201.035 111.626 201.011 111.793 202.015 113.538C203.473 116.071 208.061 118.317 215.971 120.324C218.002 120.85 219.866 121.376 220.129 121.519C220.368 121.663 220.535 121.686 220.463 121.567Z" fill="url(#paint37_linear_5_3)"/>
<path d="M240.56 111.578C243.81 110.67 245.65 108.304 245.268 105.532C245.196 104.959 245.053 104.385 244.981 104.242C244.886 104.122 244.384 104.457 243.81 105.006L242.807 105.986L242.687 104.576C242.329 100.633 238.649 98.0764 236.163 100.012C235.542 100.514 235.542 100.538 235.996 101.04C236.809 101.9 237.071 102.665 237.048 104.003C237.024 106.679 234.682 108.949 231.934 108.949C230.333 108.949 230.189 109.212 231.265 110.096C233.105 111.65 237.693 112.367 240.56 111.578Z" fill="url(#paint38_linear_5_3)"/>
<path d="M224.669 92.1978C225.553 91.3375 224.884 89.8798 223.618 89.8798C222.757 89.8798 222.184 90.4294 222.184 91.2897C222.184 92.0305 222.805 92.5801 223.618 92.5801C224 92.5801 224.478 92.4128 224.669 92.1978Z" fill="url(#paint39_linear_5_3)"/>
<path d="M225.697 89.0673C226.27 88.6849 226.796 84.5269 226.653 81.5876C226.485 78.1464 225.792 75.8045 224.096 73.0564C220.511 67.2255 215.756 64.3818 209.614 64.3818C206.197 64.3818 204.285 64.9075 201.8 66.4608C200.916 67.0344 200.892 67.0583 201.298 67.5123C201.513 67.7513 201.776 67.9663 201.871 67.9663C201.967 67.9663 202.684 67.584 203.425 67.1299C205.48 65.9112 207.105 65.505 209.518 65.6244C214.728 65.9112 219.603 69.0417 221.801 73.5104C223.259 76.4497 223.928 79.5085 223.928 83.1409C223.928 85.196 223.785 86.6776 223.546 87.5618C223.355 88.2787 223.211 88.9 223.235 88.9239C223.426 89.1151 225.458 89.2346 225.697 89.0673Z" fill="url(#paint40_linear_5_3)"/>
<path d="M206.531 86.1041C209.327 85.0526 211.167 81.9938 210.474 79.4607C209.447 75.6611 204.333 74.6097 201.322 77.5968L200.485 78.4571L199.888 78.003C199.052 77.3339 198.287 75.6611 198.287 74.4663C198.287 73.9167 198.502 72.913 198.741 72.2678L199.195 71.049L198.621 70.8101C198.287 70.6906 197.928 70.595 197.833 70.595C197.522 70.595 196.184 73.7016 195.873 75.1115C194.965 79.3174 197.14 83.4754 201.298 85.5067C202.875 86.2714 205.289 86.5581 206.531 86.1041Z" fill="url(#paint41_linear_5_3)"/>
<path d="M189.612 78.7438C192.122 76.9276 191.667 73.1519 188.943 73.1519C188.059 73.1519 187.055 74.1078 187.055 74.9442C187.055 75.3743 186.96 75.4221 186.076 75.3027C185.526 75.231 184.833 74.9203 184.522 74.6335C183.829 73.9883 183.232 72.1244 183.232 70.6667V69.6391H182.3H181.344L181.201 70.9056C180.747 74.5619 182.634 78.3376 185.359 79.174C187.031 79.6758 188.537 79.5085 189.612 78.7438Z" fill="url(#paint42_linear_5_3)"/>
<path d="M200.916 69.6152C201.131 69.2329 201.107 68.9939 200.796 68.5399C200.342 67.8469 199.697 67.7991 199.123 68.4443C198.765 68.8505 198.741 69.0178 198.956 69.5196C199.315 70.2843 200.533 70.356 200.916 69.6152Z" fill="url(#paint43_linear_5_3)"/>
<path d="M183.686 67.7512C184.689 66.7475 184.044 65.0986 182.634 65.0986C181.224 65.0986 180.46 66.3891 181.248 67.4644C181.87 68.2769 183.017 68.4203 183.686 67.7512Z" fill="url(#paint44_linear_5_3)"/>
<path d="M170.806 67.2733C173.458 66.413 175.824 64.095 177.162 61.0362C177.688 59.8175 177.807 56.4958 177.329 56.3285C177.186 56.2807 176.995 56.448 176.899 56.7109C176.684 57.4278 175.418 58.5987 174.462 59.005C173.41 59.459 171.045 59.459 170.017 59.0289C168.918 58.5748 167.723 57.2605 167.556 56.3285C167.484 55.8984 167.317 55.4921 167.245 55.4205C167.149 55.3727 166.6 55.5399 166.026 55.8267C164.162 56.7587 163.66 58.9811 164.807 61.2274C165.309 62.1833 165.859 62.8285 166.863 63.641C167.245 63.9277 167.484 64.2145 167.412 64.2623C167.341 64.334 166.743 64.4535 166.05 64.5491C165.381 64.6208 164.831 64.7641 164.831 64.8358C164.831 65.1465 166.385 66.4847 167.173 66.8671C168.105 67.345 169.969 67.5601 170.806 67.2733Z" fill="url(#paint45_linear_5_3)"/>
<path d="M184.283 63.9516C184.355 63.8799 184.427 63.641 184.427 63.402C184.427 61.9921 188.346 56.448 190.544 54.7513L191.787 53.7715L191.07 52.8635L190.353 51.9554L189.66 52.4572C188.37 53.3653 185.956 55.9223 184.881 57.4756C183.949 58.8377 182.3 62.4222 182.276 63.0913C182.276 63.3781 184.092 64.1667 184.283 63.9516Z" fill="url(#paint46_linear_5_3)"/>
<path d="M188.083 52.9352C189.612 51.9315 193.03 46.6025 193.651 44.2606C194.32 41.7514 193.962 39.4334 192.814 38.8121C192.145 38.4537 192.145 38.4537 191.978 39.8158C191.739 41.5125 191.5 41.7753 191.357 40.4849L191.237 39.4095L190.186 40.4132C189.636 40.9867 189.23 41.2735 189.302 41.0584C189.373 40.8433 189.445 40.6044 189.445 40.4849C189.445 40.3654 189.732 39.9592 190.066 39.5529C190.879 38.5731 190.52 38.6209 189.206 39.6724C186.721 41.6319 185.741 43.9021 185.741 47.654C185.741 50.7605 186.004 52.3377 186.601 52.9352C187.151 53.4848 187.246 53.4848 188.083 52.9352Z" fill="url(#paint47_linear_5_3)"/>
<path d="M194.392 52.5052C194.703 52.4574 195.157 52.1229 195.419 51.7883C196.973 49.8049 194.272 47.3674 192.432 49.088C190.927 50.4979 192.313 52.8876 194.392 52.5052Z" fill="url(#paint48_linear_5_3)"/>
<path d="M175.704 49.6852C179.074 48.7532 181.535 47.415 183.638 45.312C184.857 44.0694 186.53 41.5602 186.291 41.3213C186.243 41.2735 185.12 41.7753 183.781 42.4444C182.443 43.0896 181.224 43.5915 181.081 43.5437C180.938 43.4959 181.87 42.9223 183.136 42.2771C186.052 40.7955 186.314 40.3415 184.164 40.5805C179.934 41.0345 175.824 42.6356 172.669 45.0253C169.85 47.1521 168.918 49.0399 170.327 49.733C171.116 50.1392 174.199 50.0914 175.704 49.6852Z" fill="url(#paint49_linear_5_3)"/>
<path d="M199.362 48.9446C201.298 48.1321 205.217 47.2479 207.846 47.0329L209.996 46.8656V46.2204C209.996 45.838 210.068 45.3601 210.164 45.1211C210.307 44.7388 210.164 44.7149 208.61 44.8582C206.077 45.0972 202.326 45.8858 199.745 46.6983C196.662 47.6542 196.662 47.6542 197.307 48.7056C197.618 49.1836 197.857 49.5659 197.881 49.5659C197.905 49.542 198.574 49.2792 199.362 48.9446Z" fill="url(#paint50_linear_5_3)"/>
<path d="M215.684 47.7736C217.213 46.5071 216.425 44.3086 214.441 44.3086C212.673 44.3086 211.765 46.1964 212.912 47.5107C213.748 48.4666 214.776 48.5383 215.684 47.7736Z" fill="url(#paint51_linear_5_3)"/>
<path d="M206.603 41.0823C208.658 40.7 209.59 40.1981 209.471 39.4812C209.375 38.836 206.579 36.6614 204.62 35.7055C202.517 34.6541 200.199 34.2239 198.43 34.5346C196.925 34.7974 195.18 35.4188 195.18 35.6816C195.18 35.7533 195.73 35.7772 196.399 35.7294C197.259 35.6816 197.57 35.7294 197.474 35.9206C197.379 36.064 197.068 36.1835 196.757 36.1835C196.471 36.1835 196.017 36.3268 195.778 36.518C195.348 36.8287 195.371 36.8765 196.136 37.3544C197.235 37.9996 196.471 38.0235 195.132 37.3783C194.583 37.1154 194.105 36.9004 194.057 36.9004C194.009 36.9004 193.985 37.2588 193.985 37.689C194.009 38.9794 195.324 40.1264 197.761 40.9389C199.506 41.5364 203.735 41.6081 206.603 41.0823Z" fill="url(#paint52_linear_5_3)"/>
<path d="M180.962 40.6044C183.805 40.1981 186.577 39.5529 186.577 39.2661C186.577 39.1467 185.861 39.0511 185 39.0511C182.157 39.0511 178.978 37.904 176.851 36.064C175.776 35.1559 174.701 34.9408 172.598 35.2515C169.826 35.6338 167.579 37.1393 167.747 38.4775C167.842 39.4573 169.372 40.1503 172.359 40.6044C175.179 41.0345 177.998 41.0345 180.962 40.6044Z" fill="url(#paint53_linear_5_3)"/>
<path d="M189.421 38.8599C189.971 38.6927 189.899 38.5971 188.322 37.4261C185.693 35.4905 185.072 34.4629 184.068 30.5677C183.423 28.0824 183.041 27.6523 181.177 27.4372C179.982 27.2938 179.958 27.2938 179.647 28.0585C179.384 28.6798 179.384 29.11 179.623 30.3765C180.555 35.4666 183.327 38.4059 187.653 38.8838C188.322 38.9555 189.111 38.9316 189.421 38.8599Z" fill="url(#paint54_linear_5_3)"/>
<path d="M182.515 37.6412C182.515 37.5217 182.348 37.3783 182.157 37.2827C181.655 37.0916 179.791 34.4868 179.074 33.0052C178.333 31.428 177.975 29.4684 178.238 28.3453C178.476 27.2699 178.261 27.1027 175.752 26.2663C173.482 25.5255 171.236 25.406 170.543 26.0273C168.392 27.9868 174.414 34.5585 180.794 37.235C182.419 37.928 182.515 37.9519 182.515 37.6412Z" fill="url(#paint55_linear_5_3)"/>
<path d="M191.524 37.4739C192.002 37.2588 191.883 36.9004 191.381 36.9004C191.118 36.9004 190.831 36.8048 190.759 36.6614C190.688 36.5419 190.783 36.4225 190.974 36.4225C191.476 36.4225 191.476 36.4225 190.544 34.2239C190.329 33.7221 190.21 33.3159 190.258 33.3159C190.305 33.3159 190.783 34.0089 191.333 34.8692C192.456 36.6853 192.934 36.8765 192.695 35.4666C192.504 34.2239 192.695 34.2478 193.053 35.5144C193.269 36.3747 193.34 36.4702 193.555 36.0879C193.985 35.2993 193.651 32.5034 192.958 31.3563C191.572 29.0144 187.127 25.4299 185.598 25.4299C184.451 25.4299 184.331 25.8839 184.737 28.3453C185.454 32.5989 186.649 35.2037 188.513 36.7092C189.349 37.4022 190.855 37.7607 191.524 37.4739Z" fill="url(#paint56_linear_5_3)"/>
<path d="M195.204 34.4629C195.682 33.4115 195.778 32.814 195.778 30.9262C195.754 28.9427 195.682 28.4887 195.109 27.2938C194.368 25.8122 192.432 23.8527 190.998 23.1597C189.708 22.5622 187.127 22.156 186.793 22.4906C186.076 23.2075 187.557 25.2148 189.947 26.8159C192.838 28.7516 194.583 31.6909 194.416 34.3195C194.368 35.0842 194.416 35.7056 194.487 35.7056C194.583 35.7056 194.894 35.132 195.204 34.4629Z" fill="url(#paint57_linear_5_3)"/>
<path d="M201.513 33.2203C205.265 32.0493 208.969 28.8949 210.713 25.3821C211.263 24.2589 211.789 22.849 211.836 22.2516C211.956 21.2957 211.908 21.1284 211.335 20.77C210.498 20.2203 209.184 20.5549 206.292 22.0365C203.496 23.4703 201.011 25.9078 199.53 28.632C198.98 29.6835 198.526 30.6155 198.526 30.735C198.526 31.0934 198.956 30.9262 199.768 30.2809L200.557 29.6118L199.745 30.6394C199.314 31.189 198.574 31.9298 198.144 32.2883C197.689 32.6228 197.355 32.9574 197.427 33.0052C197.474 33.053 198.191 32.7662 199.028 32.3361C199.864 31.9298 200.414 31.7387 200.27 31.9298C200.103 32.121 199.482 32.5034 198.884 32.814C198.287 33.1008 197.809 33.3875 197.809 33.4592C197.809 33.6743 200.629 33.507 201.513 33.2203Z" fill="url(#paint58_linear_5_3)"/>
<path d="M197.475 30.6394C198.717 29.3012 201.561 24.713 202.947 21.8453C204.285 19.0494 204.572 17.3766 203.807 16.6119C202.421 15.2259 199.984 16.6119 198.622 19.5751C198 20.8895 197.952 21.2718 197.929 24.235C197.881 27.2699 197.833 27.5806 197.116 29.4446C196.686 30.5438 196.375 31.4758 196.447 31.5475C196.495 31.5953 196.973 31.189 197.475 30.6394Z" fill="url(#paint59_linear_5_3)"/>
<path d="M196.901 28.2497C197.355 27.4611 197.259 22.1799 196.781 20.0053C196.566 19.0494 196.232 17.8784 196.041 17.4244C195.467 16.0384 194.248 14.4612 193.46 14.0549C192.767 13.6965 192.695 13.6965 192.265 14.1505C191.787 14.6046 191.596 15.6082 191.213 19.6946L191.07 21.2479L192.552 22.5383C194.368 24.1155 195.563 25.8839 195.945 27.5328C196.28 28.9188 196.447 29.0383 196.901 28.2497Z" fill="url(#paint60_linear_5_3)"/>
<path d="M183.471 26.0512C183.471 25.0236 183.423 24.928 182.515 24.474C181.416 23.9244 180.078 23.8527 179.671 24.3306C179.504 24.5218 179.408 25.1431 179.456 25.6927L179.528 26.6964L181.081 26.7442C181.941 26.7681 182.826 26.8637 183.041 26.9593C183.423 27.1265 183.471 27.0071 183.471 26.0512Z" fill="url(#paint61_linear_5_3)"/>
<path d="M178.214 25.4299C178.214 23.4703 178.859 22.0365 179.982 21.5108C180.436 21.2957 180.938 21.1284 181.081 21.1284C181.559 21.1284 180.866 20.4354 179.91 19.9336C178.739 19.3601 176.445 18.906 175.585 19.0972C174.772 19.2645 174.151 20.0292 174.151 20.7939C174.151 21.7259 175.776 24.5696 177.019 25.7883L178.214 26.9593V25.4299Z" fill="url(#paint62_linear_5_3)"/>
<path d="M186.076 24.1633C185.956 23.6854 185.884 23.1836 185.908 22.9924C185.956 22.8251 185.574 22.4905 185.096 22.2516C183.566 21.5108 182.754 22.4428 183.519 24.1155C183.71 24.5696 183.973 24.713 184.522 24.713C184.929 24.713 185.502 24.7846 185.789 24.8563C186.291 24.9997 186.291 24.9519 186.076 24.1633Z" fill="url(#paint63_linear_5_3)"/>
<path d="M182.348 23.2074C182.443 22.7773 182.563 22.2038 182.659 21.917C182.802 21.4152 182.73 21.3674 181.918 21.3674C181.272 21.3674 180.866 21.5347 180.341 22.0604C179.385 23.0402 179.432 23.5181 180.508 23.5181C180.962 23.5181 181.535 23.6137 181.774 23.7571C182.157 23.9482 182.228 23.8527 182.348 23.2074Z" fill="url(#paint64_linear_5_3)"/>
<path d="M187.055 21.8214C187.39 21.678 188.226 21.6063 188.896 21.6541C189.589 21.7258 190.162 21.678 190.162 21.5824C190.162 21.224 188.059 19.9336 186.984 19.6707C185.765 19.3361 184.594 19.6707 184.164 20.4593C183.853 21.0328 184.044 21.2957 184.905 21.4869C185.287 21.5824 185.669 21.7497 185.741 21.8692C185.932 22.1321 186.291 22.1321 187.055 21.8214Z" fill="url(#paint65_linear_5_3)"/>
<path d="M183.567 19.8141C184.188 18.8821 185.646 18.5715 187.271 19.0255C188.011 19.2167 188.8 19.4795 189.039 19.5751C189.445 19.7424 189.421 19.6229 188.896 18.5954C187.032 14.9391 184.379 13.2664 182.874 14.7958C182.372 15.2737 182.276 15.5844 182.276 16.8748C182.276 18.4281 182.611 20.0531 182.969 20.292C183.089 20.3398 183.351 20.1487 183.567 19.8141Z" fill="url(#paint66_linear_5_3)"/>
<defs>
<linearGradient id="paint0_linear_5_3" x1="216.796" y1="144.411" x2="284.118" y2="179.995" gradientUnits="userSpaceOnUse">
<stop stop-color="#BF570B"/>
<stop offset="1" stop-color="#D59D7D"/>
</linearGradient>
<linearGradient id="paint1_linear_5_3" x1="160.413" y1="249.609" x2="165.083" y2="260.324" gradientUnits="userSpaceOnUse">
<stop stop-color="#BF570B"/>
<stop offset="1" stop-color="#D59D7D"/>
</linearGradient>
<linearGradient id="paint2_linear_5_3" x1="151.453" y1="249.67" x2="153.567" y2="252.078" gradientUnits="userSpaceOnUse">
<stop stop-color="#BF570B"/>
<stop offset="1" stop-color="#D59D7D"/>
</linearGradient>
<linearGradient id="paint3_linear_5_3" x1="12.7678" y1="215.52" x2="37.5584" y2="241.36" gradientUnits="userSpaceOnUse">
<stop stop-color="#BF570B"/>
<stop offset="1" stop-color="#D59D7D"/>
</linearGradient>
<linearGradient id="paint4_linear_5_3" x1="149.249" y1="240.48" x2="153.763" y2="242.58" gradientUnits="userSpaceOnUse">
<stop stop-color="#BF570B"/>
<stop offset="1" stop-color="#D59D7D"/>
</linearGradient>
<linearGradient id="paint5_linear_5_3" x1="70.7017" y1="234.478" x2="79.847" y2="243.724" gradientUnits="userSpaceOnUse">
<stop stop-color="#BF570B"/>
<stop offset="1" stop-color="#D59D7D"/>
</linearGradient>
<linearGradient id="paint6_linear_5_3" x1="149.925" y1="193.524" x2="180.492" y2="243.71" gradientUnits="userSpaceOnUse">
<stop stop-color="#BF570B"/>
<stop offset="1" stop-color="#D59D7D"/>
</linearGradient>
<linearGradient id="paint7_linear_5_3" x1="149.592" y1="236.742" x2="151.39" y2="238.775" gradientUnits="userSpaceOnUse">
<stop stop-color="#BF570B"/>
<stop offset="1" stop-color="#D59D7D"/>
</linearGradient>
<linearGradient id="paint8_linear_5_3" x1="111.841" y1="227.132" x2="119.42" y2="237.016" gradientUnits="userSpaceOnUse">
<stop stop-color="#BF570B"/>
<stop offset="1" stop-color="#D59D7D"/>
</linearGradient>
<linearGradient id="paint9_linear_5_3" x1="47.4168" y1="196.817" x2="75.1081" y2="222.689" gradientUnits="userSpaceOnUse">
<stop stop-color="#BF570B"/>
<stop offset="1" stop-color="#D59D7D"/>
</linearGradient>
<linearGradient id="paint10_linear_5_3" x1="87.7874" y1="181.023" x2="118.237" y2="227.459" gradientUnits="userSpaceOnUse">
<stop stop-color="#BF570B"/>
<stop offset="1" stop-color="#D59D7D"/>
</linearGradient>
<linearGradient id="paint11_linear_5_3" x1="230.428" y1="202.379" x2="245.629" y2="210.781" gradientUnits="userSpaceOnUse">
<stop stop-color="#BF570B"/>
<stop offset="1" stop-color="#D59D7D"/>
</linearGradient>
<linearGradient id="paint12_linear_5_3" x1="68.0894" y1="208.976" x2="75.5159" y2="223.29" gradientUnits="userSpaceOnUse">
<stop stop-color="#BF570B"/>
<stop offset="1" stop-color="#D59D7D"/>
</linearGradient>
<linearGradient id="paint13_linear_5_3" x1="55.5015" y1="214.121" x2="59.0012" y2="218.186" gradientUnits="userSpaceOnUse">
<stop stop-color="#BF570B"/>
<stop offset="1" stop-color="#D59D7D"/>
</linearGradient>
<linearGradient id="paint14_linear_5_3" x1="23.3512" y1="206.915" x2="30.8847" y2="217.502" gradientUnits="userSpaceOnUse">
<stop stop-color="#BF570B"/>
<stop offset="1" stop-color="#D59D7D"/>
</linearGradient>
<linearGradient id="paint15_linear_5_3" x1="49.3204" y1="187.751" x2="63.7392" y2="194.365" gradientUnits="userSpaceOnUse">
<stop stop-color="#BF570B"/>
<stop offset="1" stop-color="#D59D7D"/>
</linearGradient>
<linearGradient id="paint16_linear_5_3" x1="71.9645" y1="192.475" x2="79.5294" y2="195.79" gradientUnits="userSpaceOnUse">
<stop stop-color="#BF570B"/>
<stop offset="1" stop-color="#D59D7D"/>
</linearGradient>
<linearGradient id="paint17_linear_5_3" x1="157.391" y1="204.246" x2="159.019" y2="206.089" gradientUnits="userSpaceOnUse">
<stop stop-color="#BF570B"/>
<stop offset="1" stop-color="#D59D7D"/>
</linearGradient>
<linearGradient id="paint18_linear_5_3" x1="152.916" y1="199.967" x2="156.498" y2="204.31" gradientUnits="userSpaceOnUse">
<stop stop-color="#BF570B"/>
<stop offset="1" stop-color="#D59D7D"/>
</linearGradient>
<linearGradient id="paint19_linear_5_3" x1="196.153" y1="197.385" x2="198.693" y2="200.332" gradientUnits="userSpaceOnUse">
<stop stop-color="#BF570B"/>
<stop offset="1" stop-color="#D59D7D"/>
</linearGradient>
<linearGradient id="paint20_linear_5_3" x1="208.533" y1="195.257" x2="209.475" y2="200.951" gradientUnits="userSpaceOnUse">
<stop stop-color="#BF570B"/>
<stop offset="1" stop-color="#D59D7D"/>
</linearGradient>
<linearGradient id="paint21_linear_5_3" x1="149.998" y1="197.146" x2="151.566" y2="198.961" gradientUnits="userSpaceOnUse">
<stop stop-color="#BF570B"/>
<stop offset="1" stop-color="#D59D7D"/>
</linearGradient>
<linearGradient id="paint22_linear_5_3" x1="154.99" y1="173.537" x2="171.345" y2="188.478" gradientUnits="userSpaceOnUse">
<stop stop-color="#BF570B"/>
<stop offset="1" stop-color="#D59D7D"/>
</linearGradient>
<linearGradient id="paint23_linear_5_3" x1="212.454" y1="161.419" x2="236.398" y2="189.761" gradientUnits="userSpaceOnUse">
<stop stop-color="#BF570B"/>
<stop offset="1" stop-color="#D59D7D"/>
</linearGradient>
<linearGradient id="paint24_linear_5_3" x1="173.239" y1="192.713" x2="175.226" y2="195.133" gradientUnits="userSpaceOnUse">
<stop stop-color="#BF570B"/>
<stop offset="1" stop-color="#D59D7D"/>
</linearGradient>
<linearGradient id="paint25_linear_5_3" x1="162.781" y1="179.794" x2="173.693" y2="189.352" gradientUnits="userSpaceOnUse">
<stop stop-color="#BF570B"/>
<stop offset="1" stop-color="#D59D7D"/>
</linearGradient>
<linearGradient id="paint26_linear_5_3" x1="179.128" y1="187.88" x2="183.624" y2="193.79" gradientUnits="userSpaceOnUse">
<stop stop-color="#BF570B"/>
<stop offset="1" stop-color="#D59D7D"/>
</linearGradient>
<linearGradient id="paint27_linear_5_3" x1="76.2082" y1="188.678" x2="78.6615" y2="191.558" gradientUnits="userSpaceOnUse">
<stop stop-color="#BF570B"/>
<stop offset="1" stop-color="#D59D7D"/>
</linearGradient>
<linearGradient id="paint28_linear_5_3" x1="183.86" y1="185.031" x2="185.708" y2="187.237" gradientUnits="userSpaceOnUse">
<stop stop-color="#BF570B"/>
<stop offset="1" stop-color="#D59D7D"/>
</linearGradient>
<linearGradient id="paint29_linear_5_3" x1="58.3913" y1="183.49" x2="61.3254" y2="186.922" gradientUnits="userSpaceOnUse">
<stop stop-color="#BF570B"/>
<stop offset="1" stop-color="#D59D7D"/>
</linearGradient>
<linearGradient id="paint30_linear_5_3" x1="178.478" y1="166.488" x2="190.536" y2="175.873" gradientUnits="userSpaceOnUse">
<stop stop-color="#BF570B"/>
<stop offset="1" stop-color="#D59D7D"/>
</linearGradient>
<linearGradient id="paint31_linear_5_3" x1="202.237" y1="136.589" x2="232.041" y2="162.126" gradientUnits="userSpaceOnUse">
<stop stop-color="#BF570B"/>
<stop offset="1" stop-color="#D59D7D"/>
</linearGradient>
<linearGradient id="paint32_linear_5_3" x1="182.358" y1="126.049" x2="208.123" y2="156.22" gradientUnits="userSpaceOnUse">
<stop stop-color="#BF570B"/>
<stop offset="1" stop-color="#D59D7D"/>
</linearGradient>
<linearGradient id="paint33_linear_5_3" x1="223.986" y1="124.251" x2="243.35" y2="148.84" gradientUnits="userSpaceOnUse">
<stop stop-color="#BF570B"/>
<stop offset="1" stop-color="#D59D7D"/>
</linearGradient>
<linearGradient id="paint34_linear_5_3" x1="207.114" y1="129.053" x2="216.178" y2="141.39" gradientUnits="userSpaceOnUse">
<stop stop-color="#BF570B"/>
<stop offset="1" stop-color="#D59D7D"/>
</linearGradient>
<linearGradient id="paint35_linear_5_3" x1="243.972" y1="136.892" x2="246.453" y2="139.838" gradientUnits="userSpaceOnUse">
<stop stop-color="#BF570B"/>
<stop offset="1" stop-color="#D59D7D"/>
</linearGradient>
<linearGradient id="paint36_linear_5_3" x1="181.893" y1="87.8439" x2="205.431" y2="118.812" gradientUnits="userSpaceOnUse">
<stop stop-color="#BF570B"/>
<stop offset="1" stop-color="#D59D7D"/>
</linearGradient>
<linearGradient id="paint37_linear_5_3" x1="218.101" y1="3.41397" x2="276.488" y2="27.232" gradientUnits="userSpaceOnUse">
<stop stop-color="#BF570B"/>
<stop offset="1" stop-color="#D59D7D"/>
</linearGradient>
<linearGradient id="paint38_linear_5_3" x1="236.265" y1="99.7036" x2="244.522" y2="110.76" gradientUnits="userSpaceOnUse">
<stop stop-color="#BF570B"/>
<stop offset="1" stop-color="#D59D7D"/>
</linearGradient>
<linearGradient id="paint39_linear_5_3" x1="223.299" y1="89.9555" x2="225.116" y2="92.1706" gradientUnits="userSpaceOnUse">
<stop stop-color="#BF570B"/>
<stop offset="1" stop-color="#D59D7D"/>
</linearGradient>
<linearGradient id="paint40_linear_5_3" x1="210.939" y1="65.0768" x2="227.705" y2="84.8504" gradientUnits="userSpaceOnUse">
<stop stop-color="#BF570B"/>
<stop offset="1" stop-color="#D59D7D"/>
</linearGradient>
<linearGradient id="paint41_linear_5_3" x1="201.441" y1="71.0364" x2="212.198" y2="82.6907" gradientUnits="userSpaceOnUse">
<stop stop-color="#BF570B"/>
<stop offset="1" stop-color="#D59D7D"/>
</linearGradient>
<linearGradient id="paint42_linear_5_3" x1="185.044" y1="69.9147" x2="191.696" y2="77.7335" gradientUnits="userSpaceOnUse">
<stop stop-color="#BF570B"/>
<stop offset="1" stop-color="#D59D7D"/>
</linearGradient>
<linearGradient id="paint43_linear_5_3" x1="199.683" y1="68.049" x2="201.133" y2="69.7732" gradientUnits="userSpaceOnUse">
<stop stop-color="#BF570B"/>
<stop offset="1" stop-color="#D59D7D"/>
</linearGradient>
<linearGradient id="paint44_linear_5_3" x1="182.183" y1="65.185" x2="184.259" y2="67.6778" gradientUnits="userSpaceOnUse">
<stop stop-color="#BF570B"/>
<stop offset="1" stop-color="#D59D7D"/>
</linearGradient>
<linearGradient id="paint45_linear_5_3" x1="169.382" y1="55.7489" x2="177.371" y2="65.9476" gradientUnits="userSpaceOnUse">
<stop stop-color="#BF570B"/>
<stop offset="1" stop-color="#D59D7D"/>
</linearGradient>
<linearGradient id="paint46_linear_5_3" x1="185.948" y1="52.2931" x2="194.16" y2="59.6898" gradientUnits="userSpaceOnUse">
<stop stop-color="#BF570B"/>
<stop offset="1" stop-color="#D59D7D"/>
</linearGradient>
<linearGradient id="paint47_linear_5_3" x1="188.924" y1="39.0238" x2="198.092" y2="44.8693" gradientUnits="userSpaceOnUse">
<stop stop-color="#BF570B"/>
<stop offset="1" stop-color="#D59D7D"/>
</linearGradient>
<linearGradient id="paint48_linear_5_3" x1="193.375" y1="48.6173" x2="196.122" y2="51.7796" gradientUnits="userSpaceOnUse">
<stop stop-color="#BF570B"/>
<stop offset="1" stop-color="#D59D7D"/>
</linearGradient>
<linearGradient id="paint49_linear_5_3" x1="176.1" y1="40.7867" x2="181.317" y2="51.2043" gradientUnits="userSpaceOnUse">
<stop stop-color="#BF570B"/>
<stop offset="1" stop-color="#D59D7D"/>
</linearGradient>
<linearGradient id="paint50_linear_5_3" x1="202.077" y1="44.9117" x2="203.972" y2="50.8825" gradientUnits="userSpaceOnUse">
<stop stop-color="#BF570B"/>
<stop offset="1" stop-color="#D59D7D"/>
</linearGradient>
<linearGradient id="paint51_linear_5_3" x1="213.979" y1="44.4204" x2="216.681" y2="47.5765" gradientUnits="userSpaceOnUse">
<stop stop-color="#BF570B"/>
<stop offset="1" stop-color="#D59D7D"/>
</linearGradient>
<linearGradient id="paint52_linear_5_3" x1="199.967" y1="34.6322" x2="203.258" y2="42.9345" gradientUnits="userSpaceOnUse">
<stop stop-color="#BF570B"/>
<stop offset="1" stop-color="#D59D7D"/>
</linearGradient>
<linearGradient id="paint53_linear_5_3" x1="175.011" y1="35.2809" x2="177.021" y2="42.7097" gradientUnits="userSpaceOnUse">
<stop stop-color="#BF570B"/>
<stop offset="1" stop-color="#D59D7D"/>
</linearGradient>
<linearGradient id="paint54_linear_5_3" x1="183.417" y1="27.6882" x2="191.352" y2="35.73" gradientUnits="userSpaceOnUse">
<stop stop-color="#BF570B"/>
<stop offset="1" stop-color="#D59D7D"/>
</linearGradient>
<linearGradient id="paint55_linear_5_3" x1="174.892" y1="25.9697" x2="183.176" y2="35.574" gradientUnits="userSpaceOnUse">
<stop stop-color="#BF570B"/>
<stop offset="1" stop-color="#D59D7D"/>
</linearGradient>
<linearGradient id="paint56_linear_5_3" x1="188.085" y1="25.7707" x2="196.332" y2="32.9073" gradientUnits="userSpaceOnUse">
<stop stop-color="#BF570B"/>
<stop offset="1" stop-color="#D59D7D"/>
</linearGradient>
<linearGradient id="paint57_linear_5_3" x1="190.15" y1="22.7442" x2="199.035" y2="29.7035" gradientUnits="userSpaceOnUse">
<stop stop-color="#BF570B"/>
<stop offset="1" stop-color="#D59D7D"/>
</linearGradient>
<linearGradient id="paint58_linear_5_3" x1="203.004" y1="20.887" x2="211.708" y2="31.8982" gradientUnits="userSpaceOnUse">
<stop stop-color="#BF570B"/>
<stop offset="1" stop-color="#D59D7D"/>
</linearGradient>
<linearGradient id="paint59_linear_5_3" x1="199.443" y1="16.5062" x2="208.61" y2="21.7614" gradientUnits="userSpaceOnUse">
<stop stop-color="#BF570B"/>
<stop offset="1" stop-color="#D59D7D"/>
</linearGradient>
<linearGradient id="paint60_linear_5_3" x1="193.435" y1="14.2163" x2="201.298" y2="17.8898" gradientUnits="userSpaceOnUse">
<stop stop-color="#BF570B"/>
<stop offset="1" stop-color="#D59D7D"/>
</linearGradient>
<linearGradient id="paint61_linear_5_3" x1="180.998" y1="24.0972" x2="182.893" y2="26.9855" gradientUnits="userSpaceOnUse">
<stop stop-color="#BF570B"/>
<stop offset="1" stop-color="#D59D7D"/>
</linearGradient>
<linearGradient id="paint62_linear_5_3" x1="176.886" y1="19.2747" x2="182.311" y2="24.8139" gradientUnits="userSpaceOnUse">
<stop stop-color="#BF570B"/>
<stop offset="1" stop-color="#D59D7D"/>
</linearGradient>
<linearGradient id="paint63_linear_5_3" x1="184.379" y1="22.0764" x2="186.364" y2="24.3845" gradientUnits="userSpaceOnUse">
<stop stop-color="#BF570B"/>
<stop offset="1" stop-color="#D59D7D"/>
</linearGradient>
<linearGradient id="paint64_linear_5_3" x1="180.84" y1="21.4369" x2="182.446" y2="23.695" gradientUnits="userSpaceOnUse">
<stop stop-color="#BF570B"/>
<stop offset="1" stop-color="#D59D7D"/>
</linearGradient>
<linearGradient id="paint65_linear_5_3" x1="186.394" y1="19.6124" x2="187.496" y2="22.6727" gradientUnits="userSpaceOnUse">
<stop stop-color="#BF570B"/>
<stop offset="1" stop-color="#D59D7D"/>
</linearGradient>
<linearGradient id="paint66_linear_5_3" x1="184.995" y1="14.4004" x2="189.002" y2="19.6998" gradientUnits="userSpaceOnUse">
<stop stop-color="#BF570B"/>
<stop offset="1" stop-color="#D59D7D"/>
</linearGradient>
</defs>
</svg>
