<svg width="71" height="150" viewBox="0 0 71 150" fill="none" xmlns="http://www.w3.org/2000/svg">
<path d="M51.457 1.18743L50.5977 1.57806L51.75 2.32025C54.875 4.3515 56.2813 7.32025 56.0664 11.4413C55.8125 16.4999 53.4102 21.5585 49.7383 24.7812L48.6055 25.7773L49.2891 26.0702C51.2227 26.871 53.957 26.6171 56.4961 25.4062C59.6602 23.8827 61.6719 22.0859 62.6875 19.8398L63.1172 18.8632L63.5859 19.9179L64.0547 20.9531L64.8945 20.0156C66.6719 18.0038 68.1563 14.7421 68.625 11.871C68.8594 10.4257 68.8789 8.99994 68.6641 8.99994C68.5859 8.99994 68.2148 9.58587 67.8633 10.3085C66.0273 14.039 63.1172 16.7538 59.2305 18.3163C58.2539 18.707 55.5391 19.3906 55.5391 19.2538C55.5391 19.2148 56.1055 18.7851 56.7891 18.2968C58.5469 17.0468 59.6797 15.6601 60.8516 13.3554C61.75 11.5781 61.8672 11.207 61.9453 9.83978C62.0234 8.414 61.9844 8.23822 61.3789 7.06634C60.6172 5.64056 60.3047 5.40618 60.1094 6.20696C59.8359 7.43743 59.3867 8.62884 59.0352 9.039L58.6641 9.48822L58.8789 8.90228C59.2109 7.96478 59.1133 5.8554 58.6641 4.64446C58.1563 3.29681 56.9453 1.89056 55.7148 1.28509C54.5039 0.660089 52.707 0.621027 51.457 1.18743Z" fill="url(#paint0_linear_5_83)"/>
<path d="M44.7969 1.12888C44.1719 1.36325 43.3711 2.04684 42.8242 2.80856C42.1797 3.707 42.0625 4.91794 42.5703 5.64059C42.9414 6.18747 43.8398 6.65622 44.5039 6.65622C45.1484 6.65622 45.9688 5.83591 45.9688 5.19138C45.9688 4.78122 46.0469 4.70309 46.5938 4.70309C48.0781 4.70309 50.0898 6.34372 50.9492 8.27731C51.8672 10.3672 52.1016 13.3359 51.5352 15.5429C49.5234 23.3164 40.6172 29.1171 26.0664 32.1445C19.7578 33.4531 16.0078 35.4453 10.4609 40.3867L9.09375 41.6171L8.89844 40.7773C7.90234 36.8515 7.35547 31.207 7.64844 28.2968C8.15625 23.6093 9.60156 21.1679 12.7461 19.664C13.9375 19.0976 14.1914 19.0586 16.0859 19.0586C18.5078 19.0586 19.4258 19.3906 20.9492 20.8164C22.2969 22.0859 22.8242 23.3359 22.8047 25.3086C22.7656 28.8828 20.6953 31.5195 18.1562 31.1679C17.375 31.0703 17.2188 31.0898 17.3945 31.2851C17.7852 31.6953 19.4648 31.7343 20.2461 31.3632C21.3203 30.8554 22.6094 29.3515 23.0977 28.0234C23.7227 26.4023 23.625 23.8046 22.8633 22.3593C21.75 20.1914 19.3477 18.5508 16.75 18.1797C12.7266 17.6328 9.64062 19.5664 8.01953 23.6679C6.37891 27.7695 6.32031 32.5937 7.80469 40.0937L8.3125 42.5546L7.14062 44.0976C4.32812 47.8476 1.71094 53.4531 0.96875 57.4375C0.363281 60.5625 0.65625 68.6093 1.47656 72.0859C2.17969 75.0937 3.64453 79.039 5.12891 81.9882C5.57812 82.8867 5.91016 83.6093 5.87109 83.6093C5.83203 83.6093 5.03125 83.2968 4.07422 82.9257C3.11719 82.5546 2.31641 82.2812 2.27734 82.3007C2.25781 82.3398 2.53125 83.1796 2.90234 84.1953C3.27344 85.2109 3.9375 87.1054 4.36719 88.3945C4.81641 89.6836 5.69531 91.7929 6.33984 93.082C7.33594 95.1132 7.49219 95.6015 7.51172 96.5976C7.53125 97.2421 7.58984 97.9843 7.66797 98.2578C7.80469 98.7265 7.74609 98.7461 6.41797 99.0781C4.69922 99.5078 2.64844 100.543 1.16406 101.695L0.0117188 102.594L1.94531 103.629C3.01953 104.195 4.58203 105.055 5.44141 105.562C7.23828 106.598 8.54688 107.047 9.81641 107.047C10.793 107.047 12.3945 106.676 13.1562 106.266C13.4297 106.129 12.8633 106.852 11.8867 107.848C10.9297 108.863 9.73828 110.113 9.26953 110.621L8.42969 111.539L14.8359 111.48C21.2422 111.402 22.6094 111.285 25.168 110.543C26.1445 110.269 27.707 109.488 28.5273 108.883L29.1523 108.414L30.8711 109.566C35.0117 112.34 37.9609 115.758 38.957 118.961C39.9727 122.223 39.6797 128.219 38.4688 129.019C38.2344 129.176 37.5508 129.41 36.9453 129.527C35.4805 129.82 33.957 129.488 32.7461 128.629C29.25 126.129 27.9805 125.445 25.8516 124.898C24.8164 124.644 24.4258 124.625 23.6055 124.801C23.0781 124.918 22.4336 125.172 22.1992 125.367L21.7695 125.699L22.4336 127.105C23.332 128.941 24.8945 130.367 28 132.144C30.6953 133.687 31.6719 134.605 32.2578 136.207C34.0352 140.934 32.6875 145.269 28.8984 147.008C26.75 147.984 24.3086 147.594 23.4297 146.109L23.0781 145.484L23.7812 144.762C25.0703 143.453 24.8555 141.734 23.2734 140.699C22.668 140.289 22.375 140.211 21.7109 140.309C20.2266 140.504 19.0352 142.359 19.3281 143.98C19.7969 146.344 22.4336 148.648 25.4219 149.254C30.4023 150.289 35.4805 145.172 38.6445 135.953C40.7734 129.723 44.1133 124.41 48 121.09C52.0625 117.613 55.5586 117.242 60.5195 119.801C63.2344 121.207 65.1094 123.414 65.1094 125.25C65.1094 126.168 64.5039 127.535 63.8984 127.965C63.2344 128.453 61.7109 128.687 61.5156 128.355C61.418 128.219 61.5352 128.141 61.7695 128.141C62.9023 128.141 63.3711 126.383 62.4727 125.504C61.6133 124.625 60.1875 124.957 59.543 126.187C58.6836 127.828 60.0703 129.703 62.1406 129.703C63.8594 129.703 65.1875 128.687 65.7539 126.93C66.457 124.703 66.0273 122.984 64.3477 121.305C63.7422 120.699 63.0391 120.055 62.7656 119.859C62.4922 119.684 62.668 119.723 63.1367 119.977C66.5156 121.754 67.4336 125.445 65.3047 128.785C64.543 129.996 63.3516 130.582 61.9258 130.426C60.9102 130.328 60.5586 130.074 59.1914 128.355C58.8789 127.984 58.6836 127.926 58.0781 128.004C55.1875 128.394 54.4844 131.129 56.5352 134.019C57.082 134.801 56.8477 135.035 55.5 135.035C53.8789 135.035 52.5898 134.137 51.9453 132.594C51.3984 131.285 51.6719 129.469 52.5508 128.492C52.8242 128.18 52.8242 128.141 52.5703 128.141C52.1602 128.141 50.3242 129.801 49.9727 130.484C48.2148 133.883 50.7344 139.019 55.2461 141.246C56.7109 141.969 57.1211 142.086 58.5273 142.164C61.1445 142.301 63.0391 141.363 64.9531 139C69.7383 133.043 69.8164 124.371 65.1094 119.723C62.8047 117.437 60.0508 116.48 56.3594 116.676L54.3672 116.793L54.6016 116.363C54.7188 116.129 55.2461 115.328 55.7734 114.566C56.6133 113.375 57.707 110.699 57.4531 110.465C57.3164 110.328 52.2773 110.934 50.8906 111.246C46.7891 112.203 45.0703 114.254 43.1172 120.504C42.0625 123.922 41.2422 126.227 41.1445 126.129C41.1055 126.09 41.3789 125.133 41.75 124.019C42.1211 122.906 42.7266 120.66 43.1172 119.059C44.2891 114.293 44.4258 113.844 45.0703 112.516C47.9219 106.676 51.7891 104.254 58.2734 104.254C64.6992 104.234 69.2109 107.066 69.7188 111.422C69.8945 112.887 70.1484 112.574 70.3047 110.758C70.4609 109.059 70.0898 107.359 69.2695 105.797C68.4883 104.332 66.0469 101.988 64.4844 101.187L63.1953 100.523L64.3867 99.2343C65.4805 98.0625 67.6484 94.4882 67.4141 94.2343C67.3555 94.1953 66.7891 94.2929 66.1445 94.4492C65.2266 94.6836 64.0352 94.7421 60.5977 94.7031C56.6914 94.6445 56.125 94.6836 55.2461 95.0156C52.5508 96.0507 49.4844 99.0586 46.2422 103.863C45.5195 104.918 44.9141 105.797 44.8945 105.836C44.875 105.855 44.9141 105.504 45.0117 105.055C45.4414 102.769 45.1094 100.25 44.0352 97.9648C43.1953 96.1875 41.3594 93.8046 41.0469 94.1171C40.7344 94.4296 39.7578 97.9062 39.6016 99.2148C39.543 99.8789 39.4258 100.406 39.3477 100.406C39.2891 100.406 39.0742 100.016 38.8789 99.5273C37.9609 97.3007 36.2422 95.875 31.8477 93.6484C30.207 92.8281 28.4102 91.8515 27.8242 91.4804C27.2578 91.1093 26.7305 90.8554 26.6914 90.914C26.6328 90.9726 26.5742 91.9687 26.5742 93.1211C26.5547 97.2031 27.7461 99.5859 32.5703 104.996C33.8008 106.383 34.7969 107.555 34.7578 107.574C34.7188 107.613 34.3477 107.516 33.918 107.359C33.4883 107.203 32.5312 107.027 31.7891 106.949C31.0469 106.871 30.168 106.695 29.8359 106.539C28.3125 105.875 22.7461 99.4101 23.0195 98.6679C24.4062 95.1523 24.8164 92.125 24.5039 87.7109C24.2891 84.5664 24.0938 83.1211 23 76.5781C22.082 71.1093 22.2969 65.2304 23.6055 59.4101C23.8984 58.1406 23.9766 58.0039 24.7383 57.5742C27.4141 56.0117 32.1992 55.25 35.2656 55.8945C37.4531 56.3632 40.3633 58.3945 41.8086 60.4453C42.1992 61.0117 42.2188 61.0312 42.7266 60.6992C43 60.5039 43.2344 60.2304 43.2344 60.0546C43.2344 59.8984 42.5508 59.0781 41.7305 58.2382C40.4805 56.9687 39.875 56.539 38.3516 55.8164C35.793 54.5664 33.8594 54.0976 31.3203 54.0781C29.1523 54.0781 27.2188 54.4296 25.6953 55.0937C25.207 55.3086 24.7773 55.4453 24.7188 55.3867C24.6016 55.2695 25.7344 52.0468 26.5352 50.3086C27.2383 48.7461 28.5664 46.5195 29.3867 45.5429C29.6992 45.1718 29.9141 44.8203 29.8555 44.7812C29.7578 44.6836 29.2695 45.25 27.6484 47.2617C26.4961 48.707 24.543 52.4961 23.8203 54.7031C23.3711 56.1093 23.293 56.207 22.1016 57.0468C20.4219 58.2382 17.7852 60.7968 16.7695 62.2226C14.6016 65.2695 13.1562 69.6054 12.8438 73.9609C12.707 75.6796 12.7266 75.7578 13.1758 76.0507C13.4297 76.2461 13.9961 76.3828 14.4258 76.3828H15.2266L15.4609 74.0781C15.5781 72.8086 15.9102 70.9726 16.1836 70.0156C16.8086 67.8671 18.4102 64.4687 19.6992 62.5937C20.6953 61.1484 22.3164 59.3125 22.4531 59.4492C22.5117 59.4882 22.375 60.4843 22.1992 61.6562C21.9258 63.2773 21.8477 64.9179 21.8477 68.4726C21.8477 73.5312 22.1016 76.8125 22.8438 81.2656C23.5469 85.5625 23.7617 88.2773 23.6445 91.6171C23.5469 94.5468 23.0391 97.4375 22.5508 97.9257C22.2969 98.1796 21.418 96.7539 19.7188 93.3554C18.1172 90.1328 17.1211 87.457 16.3008 84.1953L15.7344 81.9687L14.7969 81.7343C14.2695 81.5976 13.6445 81.4414 13.4102 81.3632C13 81.2265 12.9609 81.2656 13.0781 81.8711C13.3125 83.1406 14.3281 86.9492 14.5234 87.3203C14.9141 88.0429 14.6992 88.0625 13.9961 87.3984C13.5859 87.0273 12.3555 86.2851 11.2617 85.7382C9.07422 84.6445 8.91797 84.5078 7.58984 82.5351C6.69141 81.1875 4.75781 77.4179 4.75781 76.9882C4.75781 76.8711 5.10938 76.3242 5.53906 75.7578C7.375 73.3359 9.09375 69.1171 9.93359 64.9765C10.8906 60.2304 10.9883 55.7382 10.3047 49.3711L9.97266 46.4804L10.5391 45.8945C11.4961 44.8789 13.8984 43.414 15.2266 42.9843C15.9492 42.7695 16.9844 42.5937 17.5703 42.5937C18.7227 42.5937 18.7031 42.6132 18.4492 41.2656C18.293 40.5234 18.3125 40.4453 18.6055 40.5625C21.1836 41.6562 23.2344 42.0078 26.9844 42.0078H29.5625V40.875C29.5625 39.5468 29.2305 38.9218 27.8242 37.5937C27.2773 37.0859 26.8672 36.6171 26.9062 36.5781C26.9453 36.539 27.6289 36.7343 28.4297 37.0273C30.5781 37.8086 32.7656 38.2773 34.8359 38.414C39.1328 38.707 43.625 36.9296 43.625 34.9375C43.625 34.2539 42.668 32.6328 42.2578 32.6328C42.1406 32.6328 42.0625 32.5742 42.0625 32.4765C42.0625 32.3984 42.707 32.3203 43.4883 32.3203C45.6953 32.2812 47.5898 31.207 48.7227 29.3711L49.1523 28.6875L48.3906 27.9062C47.9609 27.4765 47.2578 26.9101 46.8086 26.6367L45.9883 26.1484L46.9062 25.4648C50.9883 22.3984 53.4883 17.5742 53.7227 12.3203C53.8984 8.29684 53 5.64059 50.6758 3.31638C49.0547 1.69528 47.6484 0.992157 46.1836 1.01169C45.5781 1.01169 44.9531 1.07028 44.7969 1.12888ZM37.6289 33.0429C38.7227 34.2343 37.8828 36.3437 36.3008 36.3437C34.8164 36.3437 33.918 34.332 34.8555 33.1406C35.6758 32.0859 36.7109 32.0468 37.6289 33.0429ZM9.66016 48.8828C10.0898 51.4804 9.99219 58.2578 9.46484 61.7343C8.66406 67.0468 7.16016 72.0468 5.42188 75.1523C5.05078 75.8359 4.66016 76.3828 4.58203 76.3828C4.38672 76.3828 3.72266 74.1367 3.19531 71.7734C2.27734 67.5742 2.27734 63.5117 3.19531 58.414C3.76172 55.3281 4.23047 54 5.48047 52.0078C6.69141 50.1132 9.07422 47.0859 9.26953 47.2031C9.34766 47.2421 9.52344 48.0039 9.66016 48.8828ZM9.52344 97.8086L10.4609 98.8242L9.46484 98.7851C8.37109 98.7461 8.35156 98.707 8.15625 97.2421C8.01953 96.0703 7.90234 96.0312 9.52344 97.8086ZM67.6289 127.711C67.7461 127.945 67.7656 128.531 67.6484 129.332C67.2969 131.676 67.1602 131.734 67.1602 129.508C67.1602 127.379 67.2578 127.027 67.6289 127.711ZM66.4766 133.883C65.9297 135.289 64.7969 136.969 63.957 137.594C62.5508 138.629 60.2461 138.297 59.5625 136.949C58.8203 135.523 59.4258 133.609 60.6367 133.609C61.7305 133.609 62.3945 134.918 61.6719 135.641C61.0273 136.305 60.2266 135.875 60.2266 134.898C60.2266 134.332 60.207 134.332 59.8945 134.644C59.4844 135.055 59.4844 136.187 59.9336 136.852C60.3047 137.418 61.3203 137.906 62.1406 137.906C63.5078 137.906 65.5977 135.699 66.418 133.394C66.6133 132.867 66.7891 132.516 66.8281 132.594C66.8477 132.691 66.6914 133.277 66.4766 133.883Z" fill="url(#paint1_linear_5_83)"/>
<path d="M43.9375 36.4609C43.6445 36.9687 43.4492 37.3984 43.4688 37.4179C43.5078 37.457 44.1133 37.7499 44.8555 38.0624C46.4961 38.8242 49.0742 40.5038 50.3828 41.6757C50.9492 42.1835 51.4961 42.5937 51.5938 42.5937C51.7109 42.5937 52.082 42.2617 52.4141 41.8515L53.0195 41.1288L52.2773 40.5038C51.1641 39.5468 48.0391 37.496 46.1445 36.4609L44.4453 35.5429L43.9375 36.4609Z" fill="url(#paint2_linear_5_83)"/>
<path d="M52.9805 42.418C52.5313 42.9062 52.4141 43.1992 52.4141 43.9023C52.4141 44.6445 52.5117 44.8789 53.0781 45.4453C53.5859 45.9531 53.8984 46.1094 54.4648 46.1094C55.4805 46.1094 56.5156 45.0742 56.5156 44.0781C56.5156 43.2187 56.0859 42.3008 55.5586 42.0078C55.3438 41.9102 54.8164 41.8125 54.3672 41.8125C53.7031 41.8125 53.4297 41.9297 52.9805 42.418Z" fill="url(#paint3_linear_5_83)"/>
<path d="M56.5742 45.9531L55.7734 46.7929L56.5547 47.6719C58.9961 50.3867 61.9844 56.3047 61.9844 58.414C61.9844 58.8828 62.0625 59.0195 62.2578 58.9414C62.4141 58.8828 62.8633 58.7656 63.2344 58.6875C63.625 58.6289 63.9766 58.4922 64.0352 58.414C64.2109 58.1406 63.6055 55.4258 62.9805 53.7461C61.9844 50.9922 60.3828 48.3945 58.332 46.1484L57.3945 45.0937L56.5742 45.9531Z" fill="url(#paint4_linear_5_83)"/>
<path d="M62.1602 60.1523C61.0274 61.3046 61.75 63.1015 63.3516 63.1015C63.9961 63.1015 64.9141 62.0663 64.9141 61.3437C64.9141 60.5624 63.9961 59.5859 63.2539 59.5859C62.9414 59.5859 62.5117 59.8203 62.1602 60.1523Z" fill="url(#paint5_linear_5_83)"/>
<path d="M42.9024 62.0468C42.6094 62.5156 42.6094 62.6132 42.8633 63.082C43.0781 63.4726 43.293 63.5898 43.8203 63.5898C44.3672 63.5898 44.543 63.4921 44.7578 63.0429C45.3438 61.8124 43.6641 60.8945 42.9024 62.0468Z" fill="url(#paint6_linear_5_83)"/>
<path d="M62.1797 64.332C62.1797 65.0351 61.418 67.3789 60.9688 68.1601C60.4609 68.9609 59.543 69.5468 58.7227 69.5468C57.7656 69.5468 57.4922 69.371 57.4922 68.7265C57.4922 67.0078 55.5977 65.9921 54.2891 67.0273C53.5273 67.6132 53.1953 68.414 53.1953 69.5859C53.2148 73.6289 57.9414 75.2695 61.1836 72.3593C62.8047 70.8945 63.8594 68.2773 63.9766 65.3476L64.0352 63.9804L63.1172 63.9218C62.2383 63.8632 62.1797 63.8828 62.1797 64.332Z" fill="url(#paint7_linear_5_83)"/>
<path d="M44.3672 64.8008C44.0742 64.8789 44.0156 65.1328 44.0352 66.5C44.0742 68.2578 43.8203 69.2539 43.0781 70.3672C42.6094 71.0898 41.0469 72.2812 40.5977 72.2812C40.4609 72.2812 40.2656 71.9297 40.1289 71.5195C39.8164 70.4843 38.3516 68.9023 37.1406 68.2968C33.8203 66.6367 29.7578 69.2734 29.7578 73.0429C29.7578 74.8203 30.9102 77.2422 32.2383 78.2578C35.832 80.9922 42.4141 78.9609 44.7188 74.3906C45.8516 72.1445 46.2812 68.5508 45.7148 65.8359C45.4805 64.7226 45.2461 64.5468 44.3672 64.8008ZM37.043 69.2343C39.582 70.289 39.3672 74.0781 36.7305 74.7226C34.0742 75.3867 32.1992 71.7929 34.1914 69.8984C35.1484 68.9804 35.9883 68.7851 37.043 69.2343Z" fill="url(#paint8_linear_5_83)"/>
<path d="M13.6445 77.3984C12.6875 77.9453 12.4922 78.9219 13.1758 79.7812C14.2305 81.1094 16.2031 79.7031 15.5781 78.043C15.4609 77.75 14.5234 77.1641 14.1914 77.1641C14.1133 77.1641 13.8594 77.2812 13.6445 77.3984Z" fill="url(#paint9_linear_5_83)"/>
<path d="M45.0703 79.6836C44.3282 80.1328 43.9375 81.168 44.0547 82.3203C44.1133 82.7695 44.5235 83.9219 44.9922 84.8789C45.5977 86.168 45.8321 86.9101 45.8516 87.6133L45.8711 88.5898L45.2461 88.5703C43.9766 88.5117 43.4297 87.8281 42.4336 85.1133C41.6914 83.0625 40.5977 82.2812 39.3477 82.9258C38.6055 83.2969 38.4688 83.8242 38.6446 85.5039L38.7813 86.793L38.2149 86.6562C36.7305 86.2851 36.5352 86.2851 36.2617 86.6562C35.6367 87.5156 36.086 88.8047 37.4141 89.957C38.3125 90.7383 41.3594 92.2617 43.4883 93.0039L44.7969 93.4726L44.6797 94.6445C44.6016 95.5625 44.6602 95.9726 44.9336 96.5C45.6758 97.9258 47.3164 98.4531 48.6836 97.7109C49.6602 97.1836 50.1094 96.2461 50.0117 94.9766L49.9336 93.9609H50.8711C52.2774 93.9609 54.6407 93.5898 56.0664 93.1601C58.4102 92.4375 60.1094 90.1523 59.1328 89.039C58.8203 88.707 58.6055 88.668 57.7461 88.7461C56.4961 88.8828 56.3985 88.6094 57.2969 87.5742C58.0391 86.7539 58.0782 85.9336 57.3946 85.2695C56.8477 84.7031 55.8516 84.625 55.1875 85.0937C54.9532 85.25 54.1328 86.1289 53.3907 87.0469C51.8867 88.8242 51.1641 89.332 50.2071 89.2344C49.6797 89.1953 49.5625 89.0781 49.5235 88.6484C49.4258 87.8281 50.2071 86.6367 51.5157 85.6211C53.2539 84.2539 53.586 83.8437 53.586 83.082C53.586 81.6953 52.4922 80.4844 51.2422 80.4844C50.8516 80.4844 50.1094 80.6992 49.6211 80.9531L48.7422 81.4414L48.2539 80.6992C47.7657 79.957 46.7305 79.3125 46.0274 79.3125C45.8321 79.3125 45.4024 79.4883 45.0703 79.6836ZM48.1953 89.664C49.3282 90.0937 49.543 91.8125 48.5664 92.5937C47.1407 93.7266 45.2071 92.0859 46.0469 90.4648C46.5352 89.5273 47.1992 89.2734 48.1953 89.664Z" fill="url(#paint10_linear_5_83)"/>
<defs>
<linearGradient id="paint0_linear_5_83" x1="62.4054" y1="23.0567" x2="47.3676" y2="4.56323" gradientUnits="userSpaceOnUse">
<stop stop-color="#BF570B"/>
<stop offset="1" stop-color="#D59D7D"/>
</linearGradient>
<linearGradient id="paint1_linear_5_83" x1="48.0377" y1="129.357" x2="-36.7124" y2="66.423" gradientUnits="userSpaceOnUse">
<stop stop-color="#BF570B"/>
<stop offset="1" stop-color="#D59D7D"/>
</linearGradient>
<linearGradient id="paint2_linear_5_83" x1="49.9904" y1="41.6419" x2="46.7463" y2="34.7564" gradientUnits="userSpaceOnUse">
<stop stop-color="#BF570B"/>
<stop offset="1" stop-color="#D59D7D"/>
</linearGradient>
<linearGradient id="paint3_linear_5_83" x1="55.215" y1="45.5294" x2="52.8456" y2="41.9861" gradientUnits="userSpaceOnUse">
<stop stop-color="#BF570B"/>
<stop offset="1" stop-color="#D59D7D"/>
</linearGradient>
<linearGradient id="paint4_linear_5_83" x1="61.4363" y1="57.09" x2="53.1791" y2="49.3547" gradientUnits="userSpaceOnUse">
<stop stop-color="#BF570B"/>
<stop offset="1" stop-color="#D59D7D"/>
</linearGradient>
<linearGradient id="paint5_linear_5_83" x1="63.8662" y1="62.6269" x2="61.9164" y2="59.7557" gradientUnits="userSpaceOnUse">
<stop stop-color="#BF570B"/>
<stop offset="1" stop-color="#D59D7D"/>
</linearGradient>
<linearGradient id="paint6_linear_5_83" x1="44.1812" y1="63.3102" x2="43.0907" y2="61.4936" gradientUnits="userSpaceOnUse">
<stop stop-color="#BF570B"/>
<stop offset="1" stop-color="#D59D7D"/>
</linearGradient>
<linearGradient id="paint7_linear_5_83" x1="60.5977" y1="72.4934" x2="55.429" y2="63.6597" gradientUnits="userSpaceOnUse">
<stop stop-color="#BF570B"/>
<stop offset="1" stop-color="#D59D7D"/>
</linearGradient>
<linearGradient id="paint8_linear_5_83" x1="40.8245" y1="77.4961" x2="33.1446" y2="64.3164" gradientUnits="userSpaceOnUse">
<stop stop-color="#BF570B"/>
<stop offset="1" stop-color="#D59D7D"/>
</linearGradient>
<linearGradient id="paint9_linear_5_83" x1="14.7694" y1="79.8838" x2="13.0197" y2="77.331" gradientUnits="userSpaceOnUse">
<stop stop-color="#BF570B"/>
<stop offset="1" stop-color="#D59D7D"/>
</linearGradient>
<linearGradient id="paint10_linear_5_83" x1="51.984" y1="95.5175" x2="42.9322" y2="77.7812" gradientUnits="userSpaceOnUse">
<stop stop-color="#BF570B"/>
<stop offset="1" stop-color="#D59D7D"/>
</linearGradient>
</defs>
</svg>
