<svg width="75" height="75" viewBox="0 0 75 75" fill="none" xmlns="http://www.w3.org/2000/svg">
<path d="M66.9643 0H8.03571C3.59933 0 0 3.59933 0 8.03571V66.9643C0 71.4007 3.59933 75 8.03571 75H66.9643C71.4007 75 75 71.4007 75 66.9643V8.03571C75 3.59933 71.4007 0 66.9643 0ZM46.423 64.2355C45.0167 64.4866 44.4978 63.6161 44.4978 62.8962C44.4978 61.9922 44.5313 57.3717 44.5313 53.6384C44.5313 51.0268 43.6607 49.3694 42.6395 48.4989C48.8337 47.8125 55.3627 46.9587 55.3627 36.2612C55.3627 33.2143 54.2746 31.6908 52.5 29.7321C52.7846 29.0123 53.7388 26.0491 52.2154 22.1987C49.8884 21.4788 44.5647 25.1953 44.5647 25.1953C42.3549 24.5759 39.9609 24.2578 37.6004 24.2578C35.24 24.2578 32.846 24.5759 30.6362 25.1953C30.6362 25.1953 25.3125 21.4788 22.9855 22.1987C21.4621 26.0324 22.3996 28.9955 22.7009 29.7321C20.9263 31.6908 20.0893 33.2143 20.0893 36.2612C20.0893 46.9085 26.3337 47.8125 32.5279 48.4989C31.7243 49.2188 31.0045 50.4576 30.7533 52.2321C29.1629 52.952 25.0949 54.1908 22.6674 49.9051C21.144 47.26 18.3984 47.0424 18.3984 47.0424C15.6864 47.0089 18.2143 48.75 18.2143 48.75C20.0223 49.5871 21.2946 52.8013 21.2946 52.8013C22.9185 57.7734 30.6864 56.0993 30.6864 56.0993C30.6864 58.4263 30.7199 62.2098 30.7199 62.8962C30.7199 63.6161 30.2176 64.4866 28.7946 64.2355C17.7455 60.5357 10.0112 50.0223 10.0112 37.7344C10.0112 22.3661 21.7634 10.6975 37.1317 10.6975C52.5 10.6975 64.9554 22.3661 64.9554 37.7344C64.9721 50.0223 57.4721 60.5525 46.423 64.2355ZM30 54.0067C29.6819 54.0737 29.3806 53.9397 29.3471 53.7221C29.3136 53.471 29.5313 53.2534 29.8493 53.1864C30.1674 53.1529 30.4687 53.2868 30.5022 53.5045C30.5525 53.7221 30.3348 53.9397 30 54.0067ZM28.4096 53.856C28.4096 54.0737 28.1585 54.2578 27.8237 54.2578C27.4554 54.2913 27.2042 54.1071 27.2042 53.856C27.2042 53.6384 27.4554 53.4542 27.7902 53.4542C28.1083 53.4208 28.4096 53.6049 28.4096 53.856ZM26.1161 53.6719C26.0491 53.8895 25.7143 53.99 25.4297 53.8895C25.1116 53.8225 24.894 53.5714 24.9609 53.3538C25.0279 53.1362 25.3627 53.0357 25.6473 53.1027C25.9821 53.2031 26.1998 53.4542 26.1161 53.6719ZM24.0569 52.7679C23.9062 52.952 23.5882 52.9185 23.3371 52.6674C23.0859 52.4498 23.019 52.1317 23.1864 51.981C23.3371 51.7969 23.6551 51.8304 23.9063 52.0815C24.1239 52.2991 24.2076 52.6339 24.0569 52.7679ZM22.5335 51.2444C22.3828 51.3449 22.0982 51.2444 21.9141 50.9933C21.7299 50.7422 21.7299 50.4576 21.9141 50.3404C22.0982 50.1897 22.3828 50.3069 22.5335 50.558C22.7176 50.8092 22.7176 51.1105 22.5335 51.2444ZM21.4453 49.6205C21.2946 49.7712 21.0435 49.6875 20.8594 49.5201C20.6752 49.3025 20.6417 49.0513 20.7924 48.9342C20.9431 48.7835 21.1942 48.8672 21.3783 49.0346C21.5625 49.2522 21.596 49.5033 21.4453 49.6205ZM20.3237 48.3817C20.2567 48.5324 20.0391 48.5658 19.8549 48.4487C19.6373 48.3482 19.5368 48.1641 19.6038 48.0134C19.6708 47.9129 19.8549 47.8627 20.0725 47.9464C20.2902 48.0636 20.3906 48.2478 20.3237 48.3817Z" fill="#FFE8D1"/>
</svg>
