<svg width="45" height="41" viewBox="0 0 45 41" fill="none" xmlns="http://www.w3.org/2000/svg">
<path d="M4.72449 40.1483H40.2755C43.9109 40.1483 46.1771 36.2061 44.3594 33.0665L26.5839 2.35472C24.7662 -0.784908 20.2338 -0.784908 18.4161 2.35472L0.640606 33.0665C-1.17708 36.2061 1.08912 40.1483 4.72449 40.1483ZM22.5 23.624C21.2017 23.624 20.1394 22.5617 20.1394 21.2633V16.5421C20.1394 15.2437 21.2017 14.1815 22.5 14.1815C23.7983 14.1815 24.8606 15.2437 24.8606 16.5421V21.2633C24.8606 22.5617 23.7983 23.624 22.5 23.624ZM24.8606 33.0665H20.1394V28.3452H24.8606V33.0665Z" fill="#BF570B"/>
</svg>
