<svg width="68" height="70" viewBox="0 0 68 70" fill="none" xmlns="http://www.w3.org/2000/svg">
<path d="M49.1743 13.125C43.6949 13.125 37.7939 14.2917 33.7195 17.5C29.6451 14.2917 23.7441 13.125 18.2647 13.125C14.1903 13.125 9.86294 13.7667 6.23809 15.4292C4.18682 16.3917 2.80994 18.4625 2.80994 20.825V53.725C2.80994 57.5167 6.23809 60.3167 9.77864 59.3833C12.5324 58.6542 15.4548 58.3333 18.2647 58.3333C22.6483 58.3333 27.3128 59.0917 31.0781 61.0167C32.7641 61.8917 34.6749 61.8917 36.3328 61.0167C40.0981 59.0625 44.7626 58.3333 49.1462 58.3333C51.9561 58.3333 54.8785 58.6542 57.6323 59.3833C61.1728 60.3458 64.6009 57.5458 64.6009 53.725V20.825C64.6009 18.4625 63.2241 16.3917 61.1728 15.4292C57.576 13.7667 53.2487 13.125 49.1743 13.125ZM59.0091 50.2542C59.0091 52.0917 57.3794 53.4333 55.6372 53.1125C53.5297 52.7042 51.3379 52.5292 49.1743 52.5292C44.3973 52.5292 37.5129 54.425 33.7195 56.9042V23.3333C37.5129 20.8542 44.3973 18.9583 49.1743 18.9583C51.7594 18.9583 54.3165 19.2208 56.7612 19.775C58.0537 20.0667 59.0091 21.2625 59.0091 22.6333V50.2542Z" fill="#0D1117"/>
<path d="M39.2832 32.1125C38.3841 32.1125 37.5692 31.5292 37.2882 30.5959C36.9229 29.4584 37.5411 28.2042 38.637 27.8542C42.9643 26.3959 48.5561 25.9292 53.6983 26.5417C54.8504 26.6875 55.6934 27.7667 55.5529 28.9625C55.4124 30.1584 54.3727 31.0334 53.2206 30.8875C48.6685 30.3334 43.6949 30.7709 39.9295 32.025C39.7047 32.0542 39.4799 32.1125 39.2832 32.1125Z" fill="#0D1117"/>
<path d="M39.2832 39.8709C38.3841 39.8709 37.5692 39.2875 37.2882 38.3542C36.9229 37.2167 37.5411 35.9625 38.637 35.6125C42.9362 34.1542 48.5561 33.6875 53.6983 34.3C54.8504 34.4459 55.6934 35.525 55.5529 36.7209C55.4124 37.9167 54.3727 38.7917 53.2206 38.6459C48.6685 38.0917 43.6949 38.5292 39.9295 39.7834C39.7047 39.8417 39.4799 39.8709 39.2832 39.8709Z" fill="#0D1117"/>
<path d="M39.2832 47.6291C38.3841 47.6291 37.5692 47.0458 37.2882 46.1125C36.9229 44.975 37.5411 43.7208 38.637 43.3708C42.9362 41.9125 48.5561 41.4458 53.6983 42.0583C54.8504 42.2041 55.6934 43.2833 55.5529 44.4791C55.4124 45.675 54.3727 46.5208 53.2206 46.4041C48.6685 45.85 43.6949 46.2875 39.9295 47.5416C39.7047 47.6 39.4799 47.6291 39.2832 47.6291Z" fill="#0D1117"/>
</svg>
